  0
SECTION
  2
HEADER
  9
$LIMMIN
 10
-40.629390
 20
0.000000
  9
$LIMMAX
 10
615.139405
 20
512.586739
  9
$EXTMIN
 10
-40.629390
 20
0.000000
  9
$EXTMAX
 10
615.139405
 20
512.586739
  9
$ANGBASE
 50
0.000000
  9
$ANGDIR
 70
0
  9
$INSUNITS
 70
0
  9
$DIMALT
 70
4
  9
$DIMLUNIT
 70
2
  9
$DIMASZ
 40
3.000000
  9
$DIMTXT
 40
5.000000
  9
$DIMRND
 40
0.010000
  9
$DIMEXE
 40
2.000000
  9
$DIMEXO
 40
2.000000
  9
$DIMAUNIT
 70
0
  9
$DIMADEC
 70
2
  9
$GRIDUNIT
 10
0.010000
 20
0.010000
  9
$PLIMMIN
 10
0.000000
 20
0.000000
  9
$PLIMMAX
 10
210.000000
 20
297.000000
  9
$PSVPSCALE
 40
1.000000
  0
ENDSEC
  0
SECTION
  2
TABLES
  0
TABLE
  2
LTYPE
 70
     1
  0
LTYPE
  2
CONTINUOUS
 70
    64
  3
Ausgez
 72
    65
 73
  0
 40
0.000000
  0
ENDTAB
  0
TABLE
  2
LAYER
 70
     1
  0
LAYER
  2
default
 70
    64
 39
0
 62
0
  6
CONTINUOUS
  0
LAYER
  2
0
 70
    64
 39
2
 62
0
  6
CONTINUOUS
  0
LAYER
  2
dims
 70
    64
 39
0
 62
0
  6
CONTINUOUS
  0
ENDTAB
  0
ENDSEC
  0
SECTION
  2
BLOCKS
  0
ENDSEC
  0
SECTION
  2
ENTITIES
  0
LINE
  8
dims
  6
CONTINUOUS
 10
138.064316
 20
301.085684
 11
271.762575
 21
434.887585
 39
0
 62
0
  0
DIMENSION
  8
dims
  6
CONTINUOUS
  1
;;
 10
348.197465
 20
393.579930
 13
330.625000
 23
376.000000
 14
271.750000
 24
434.850000
 70
1
 39
0
 62
0
  0
LINE
  8
dims
  6
CONTINUOUS
 10
565.837607
 20
343.712393
 11
432.048189
 21
477.501811
 39
0
 62
0
  0
LINE
  8
dims
  6
CONTINUOUS
 10
432.048189
 20
477.501811
 11
298.375000
 21
343.725000
 39
0
 62
0
  0
LINE
  8
dims
  6
CONTINUOUS
 10
4.287500
 20
434.862500
 11
138.064316
 21
301.085684
 39
0
 62
0
  0
DIMENSION
  8
dims
  6
CONTINUOUS
  1
;;
 10
613.724618
 20
357.515161
 13
596.650465
 23
374.575473
 14
565.825000
 24
343.725000
 70
1
 39
0
 62
0
  0
DIMENSION
  8
dims
  6
CONTINUOUS
  1
;;
 10
-38.074508
 20
415.565082
 13
-26.525100
 23
404.025000
 14
4.287500
 24
434.862500
 70
1
 39
0
 62
0
  0
DIMENSION
  8
dims
  6
CONTINUOUS
  1
;;
 10
-39.215183
 20
391.329999
 13
-26.528300
 23
404.017000
 14
5.724000
 24
371.765000
 70
1
 39
0
 62
0
  0
LINE
  8
dims
  6
CONTINUOUS
 10
432.049559
 20
470.429373
 11
428.512655
 21
473.966277
 39
0
 62
0
  0
LINE
  8
dims
  6
CONTINUOUS
 10
435.585092
 20
473.967648
 11
432.049559
 21
470.429373
 39
0
 62
0
  0
LINE
  8
dims
  6
CONTINUOUS
 10
43.469822
 20
464.928153
 11
138.064316
 21
301.085684
 39
0
 62
0
  0
LINE
  8
dims
  6
CONTINUOUS
 10
89.098603
 20
483.828213
 11
138.064316
 21
301.085684
 39
0
 62
0
  0
LINE
  8
dims
  6
CONTINUOUS
 10
138.064316
 20
490.274672
 11
138.064316
 21
301.085684
 39
0
 62
0
  0
DIMENSION
  8
dims
  6
CONTINUOUS
  1
;;
 13
43.244148
 23
465.319032
 14
35.426130
 24
478.860238
 10
-6.926406
 20
446.076406
 15
-7.087999
 25
446.237999
 16
35.426130
 26
478.860238
 70
2
 39
0
 62
0
  0
DIMENSION
  8
dims
  6
CONTINUOUS
  1
;;
 13
88.977837
 23
484.278918
 14
84.905604
 24
499.476697
 10
42.801213
 20
466.086218
 15
35.369571
 25
478.958200
 16
84.905604
 26
499.476697
 70
2
 39
0
 62
0
  0
DIMENSION
  8
dims
  6
CONTINUOUS
  1
;;
 13
138.064316
 23
490.510118
 14
138.064316
 24
506.206781
 10
88.657423
 20
485.474718
 15
84.975070
 25
499.217449
 16
138.064316
 26
506.206781
 70
2
 39
0
 62
0
  0
LINE
  8
dims
  6
CONTINUOUS
 10
134.527413
 20
304.619848
 11
138.062946
 21
308.158122
 39
0
 62
0
  0
LINE
  8
dims
  6
CONTINUOUS
 10
138.062946
 20
308.158122
 11
141.599850
 21
304.621218
 39
0
 62
0
  0
DIMENSION
  8
dims
  6
CONTINUOUS
  1
;;
 10
138.064316
 20
301.085684
 13
138.064316
 23
301.085684
 14
170.900000
 24
487.375000
 70
7
 39
0
 62
0
  0
DIMENSION
  8
dims
  6
CONTINUOUS
  1
;;
 10
138.064316
 20
301.085684
 13
138.064316
 23
301.085684
 14
200.950000
 24
430.100000
 70
7
 39
0
 62
0
  0
LINE
  8
0
  6
CONTINUOUS
 10
5.725000
 20
371.775000
 11
7.200000
 21
373.225000
 39
2
 62
0
  0
LINE
  8
0
  6
CONTINUOUS
 10
7.200000
 20
373.225000
 11
8.650000
 21
374.700000
 39
2
 62
0
  0
LINE
  8
0
  6
CONTINUOUS
 10
8.650000
 20
374.700000
 11
10.125000
 21
376.175000
 39
2
 62
0
  0
LINE
  8
0
  6
CONTINUOUS
 10
10.125000
 20
376.175000
 11
11.600000
 21
377.625000
 39
2
 62
0
  0
LINE
  8
0
  6
CONTINUOUS
 10
11.600000
 20
377.625000
 11
13.075000
 21
379.100000
 39
2
 62
0
  0
LINE
  8
0
  6
CONTINUOUS
 10
13.075000
 20
379.100000
 11
14.525000
 21
380.575000
 39
2
 62
0
  0
LINE
  8
0
  6
CONTINUOUS
 10
14.525000
 20
380.575000
 11
16.000000
 21
382.050000
 39
2
 62
0
  0
LINE
  8
0
  6
CONTINUOUS
 10
16.000000
 20
382.050000
 11
17.475000
 21
383.500000
 39
2
 62
0
  0
LINE
  8
0
  6
CONTINUOUS
 10
17.475000
 20
383.500000
 11
18.950000
 21
384.975000
 39
2
 62
0
  0
LINE
  8
0
  6
CONTINUOUS
 10
18.950000
 20
384.975000
 11
20.400000
 21
386.450000
 39
2
 62
0
  0
LINE
  8
0
  6
CONTINUOUS
 10
20.400000
 20
386.450000
 11
21.875000
 21
387.900000
 39
2
 62
0
  0
LINE
  8
0
  6
CONTINUOUS
 10
21.875000
 20
387.900000
 11
23.350000
 21
389.375000
 39
2
 62
0
  0
LINE
  8
0
  6
CONTINUOUS
 10
23.350000
 20
389.375000
 11
24.800000
 21
390.850000
 39
2
 62
0
  0
LINE
  8
0
  6
CONTINUOUS
 10
24.800000
 20
390.850000
 11
26.275000
 21
392.325000
 39
2
 62
0
  0
LINE
  8
0
  6
CONTINUOUS
 10
26.275000
 20
392.325000
 11
27.750000
 21
393.800000
 39
2
 62
0
  0
LINE
  8
0
  6
CONTINUOUS
 10
27.750000
 20
393.800000
 11
29.225000
 21
395.250000
 39
2
 62
0
  0
LINE
  8
0
  6
CONTINUOUS
 10
29.225000
 20
395.250000
 11
30.675000
 21
396.725000
 39
2
 62
0
  0
LINE
  8
0
  6
CONTINUOUS
 10
30.675000
 20
396.725000
 11
32.150000
 21
398.200000
 39
2
 62
0
  0
LINE
  8
0
  6
CONTINUOUS
 10
32.150000
 20
398.200000
 11
33.625000
 21
399.650000
 39
2
 62
0
  0
LINE
  8
0
  6
CONTINUOUS
 10
33.625000
 20
399.650000
 11
35.100000
 21
401.125000
 39
2
 62
0
  0
LINE
  8
0
  6
CONTINUOUS
 10
35.100000
 20
401.125000
 11
36.550000
 21
402.600000
 39
2
 62
0
  0
LINE
  8
0
  6
CONTINUOUS
 10
36.550000
 20
402.600000
 11
38.350000
 21
404.350000
 39
2
 62
0
  0
LINE
  8
0
  6
CONTINUOUS
 10
38.350000
 20
404.350000
 11
40.150000
 21
406.075000
 39
2
 62
0
  0
LINE
  8
0
  6
CONTINUOUS
 10
40.150000
 20
406.075000
 11
42.000000
 21
407.775000
 39
2
 62
0
  0
LINE
  8
0
  6
CONTINUOUS
 10
42.000000
 20
407.775000
 11
43.875000
 21
409.425000
 39
2
 62
0
  0
LINE
  8
0
  6
CONTINUOUS
 10
43.875000
 20
409.425000
 11
45.775000
 21
411.050000
 39
2
 62
0
  0
LINE
  8
0
  6
CONTINUOUS
 10
45.775000
 20
411.050000
 11
47.725000
 21
412.650000
 39
2
 62
0
  0
LINE
  8
0
  6
CONTINUOUS
 10
47.725000
 20
412.650000
 11
49.675000
 21
414.200000
 39
2
 62
0
  0
LINE
  8
0
  6
CONTINUOUS
 10
49.675000
 20
414.200000
 11
51.675000
 21
415.725000
 39
2
 62
0
  0
LINE
  8
0
  6
CONTINUOUS
 10
51.675000
 20
415.725000
 11
53.675000
 21
417.225000
 39
2
 62
0
  0
LINE
  8
0
  6
CONTINUOUS
 10
53.675000
 20
417.225000
 11
55.725000
 21
418.675000
 39
2
 62
0
  0
LINE
  8
0
  6
CONTINUOUS
 10
55.725000
 20
418.675000
 11
57.775000
 21
420.100000
 39
2
 62
0
  0
LINE
  8
0
  6
CONTINUOUS
 10
57.775000
 20
420.100000
 11
59.875000
 21
421.475000
 39
2
 62
0
  0
LINE
  8
0
  6
CONTINUOUS
 10
59.875000
 20
421.475000
 11
61.975000
 21
422.825000
 39
2
 62
0
  0
LINE
  8
0
  6
CONTINUOUS
 10
61.975000
 20
422.825000
 11
64.125000
 21
424.125000
 39
2
 62
0
  0
LINE
  8
0
  6
CONTINUOUS
 10
64.125000
 20
424.125000
 11
66.275000
 21
425.400000
 39
2
 62
0
  0
LINE
  8
0
  6
CONTINUOUS
 10
66.275000
 20
425.400000
 11
68.450000
 21
426.625000
 39
2
 62
0
  0
LINE
  8
0
  6
CONTINUOUS
 10
68.450000
 20
426.625000
 11
70.650000
 21
427.825000
 39
2
 62
0
  0
LINE
  8
0
  6
CONTINUOUS
 10
70.650000
 20
427.825000
 11
72.875000
 21
428.975000
 39
2
 62
0
  0
LINE
  8
0
  6
CONTINUOUS
 10
72.875000
 20
428.975000
 11
75.125000
 21
430.100000
 39
2
 62
0
  0
LINE
  8
0
  6
CONTINUOUS
 10
75.125000
 20
430.100000
 11
77.375000
 21
431.175000
 39
2
 62
0
  0
LINE
  8
0
  6
CONTINUOUS
 10
77.375000
 20
431.175000
 11
79.675000
 21
432.225000
 39
2
 62
0
  0
LINE
  8
0
  6
CONTINUOUS
 10
79.675000
 20
432.225000
 11
81.975000
 21
433.225000
 39
2
 62
0
  0
LINE
  8
0
  6
CONTINUOUS
 10
81.975000
 20
433.225000
 11
84.275000
 21
434.175000
 39
2
 62
0
  0
LINE
  8
0
  6
CONTINUOUS
 10
84.275000
 20
434.175000
 11
86.600000
 21
435.100000
 39
2
 62
0
  0
LINE
  8
0
  6
CONTINUOUS
 10
86.600000
 20
435.100000
 11
88.950000
 21
435.975000
 39
2
 62
0
  0
LINE
  8
0
  6
CONTINUOUS
 10
88.950000
 20
435.975000
 11
91.300000
 21
436.800000
 39
2
 62
0
  0
LINE
  8
0
  6
CONTINUOUS
 10
91.300000
 20
436.800000
 11
93.675000
 21
437.600000
 39
2
 62
0
  0
LINE
  8
0
  6
CONTINUOUS
 10
93.675000
 20
437.600000
 11
96.075000
 21
438.350000
 39
2
 62
0
  0
LINE
  8
0
  6
CONTINUOUS
 10
96.075000
 20
438.350000
 11
98.475000
 21
439.075000
 39
2
 62
0
  0
LINE
  8
0
  6
CONTINUOUS
 10
98.475000
 20
439.075000
 11
100.900000
 21
439.750000
 39
2
 62
0
  0
LINE
  8
0
  6
CONTINUOUS
 10
100.900000
 20
439.750000
 11
103.325000
 21
440.375000
 39
2
 62
0
  0
LINE
  8
0
  6
CONTINUOUS
 10
103.325000
 20
440.375000
 11
105.750000
 21
440.950000
 39
2
 62
0
  0
LINE
  8
0
  6
CONTINUOUS
 10
105.750000
 20
440.950000
 11
108.200000
 21
441.500000
 39
2
 62
0
  0
LINE
  8
0
  6
CONTINUOUS
 10
108.200000
 20
441.500000
 11
110.650000
 21
442.000000
 39
2
 62
0
  0
LINE
  8
0
  6
CONTINUOUS
 10
110.650000
 20
442.000000
 11
113.125000
 21
442.450000
 39
2
 62
0
  0
LINE
  8
0
  6
CONTINUOUS
 10
113.125000
 20
442.450000
 11
115.575000
 21
442.875000
 39
2
 62
0
  0
LINE
  8
0
  6
CONTINUOUS
 10
115.575000
 20
442.875000
 11
118.075000
 21
443.225000
 39
2
 62
0
  0
LINE
  8
0
  6
CONTINUOUS
 10
118.075000
 20
443.225000
 11
120.550000
 21
443.550000
 39
2
 62
0
  0
LINE
  8
0
  6
CONTINUOUS
 10
120.550000
 20
443.550000
 11
123.050000
 21
443.850000
 39
2
 62
0
  0
LINE
  8
0
  6
CONTINUOUS
 10
123.050000
 20
443.850000
 11
125.550000
 21
444.075000
 39
2
 62
0
  0
LINE
  8
0
  6
CONTINUOUS
 10
125.550000
 20
444.075000
 11
128.025000
 21
444.275000
 39
2
 62
0
  0
LINE
  8
0
  6
CONTINUOUS
 10
128.025000
 20
444.275000
 11
130.525000
 21
444.425000
 39
2
 62
0
  0
LINE
  8
0
  6
CONTINUOUS
 10
130.525000
 20
444.425000
 11
133.025000
 21
444.550000
 39
2
 62
0
  0
LINE
  8
0
  6
CONTINUOUS
 10
133.025000
 20
444.550000
 11
135.525000
 21
444.600000
 39
2
 62
0
  0
LINE
  8
0
  6
CONTINUOUS
 10
135.525000
 20
444.600000
 11
138.050000
 21
444.625000
 39
2
 62
0
  0
LINE
  8
0
  6
CONTINUOUS
 10
138.050000
 20
444.625000
 11
140.550000
 21
444.600000
 39
2
 62
0
  0
LINE
  8
0
  6
CONTINUOUS
 10
140.550000
 20
444.600000
 11
143.050000
 21
444.550000
 39
2
 62
0
  0
LINE
  8
0
  6
CONTINUOUS
 10
143.050000
 20
444.550000
 11
145.550000
 21
444.425000
 39
2
 62
0
  0
LINE
  8
0
  6
CONTINUOUS
 10
145.550000
 20
444.425000
 11
148.050000
 21
444.275000
 39
2
 62
0
  0
LINE
  8
0
  6
CONTINUOUS
 10
148.050000
 20
444.275000
 11
150.550000
 21
444.075000
 39
2
 62
0
  0
LINE
  8
0
  6
CONTINUOUS
 10
150.550000
 20
444.075000
 11
153.050000
 21
443.850000
 39
2
 62
0
  0
LINE
  8
0
  6
CONTINUOUS
 10
153.050000
 20
443.850000
 11
155.550000
 21
443.550000
 39
2
 62
0
  0
LINE
  8
0
  6
CONTINUOUS
 10
155.550000
 20
443.550000
 11
158.025000
 21
443.225000
 39
2
 62
0
  0
LINE
  8
0
  6
CONTINUOUS
 10
158.025000
 20
443.225000
 11
160.500000
 21
442.850000
 39
2
 62
0
  0
LINE
  8
0
  6
CONTINUOUS
 10
160.500000
 20
442.850000
 11
162.950000
 21
442.450000
 39
2
 62
0
  0
LINE
  8
0
  6
CONTINUOUS
 10
162.950000
 20
442.450000
 11
165.425000
 21
441.975000
 39
2
 62
0
  0
LINE
  8
0
  6
CONTINUOUS
 10
165.425000
 20
441.975000
 11
167.875000
 21
441.475000
 39
2
 62
0
  0
LINE
  8
0
  6
CONTINUOUS
 10
167.875000
 20
441.475000
 11
170.325000
 21
440.950000
 39
2
 62
0
  0
LINE
  8
0
  6
CONTINUOUS
 10
170.325000
 20
440.950000
 11
172.750000
 21
440.350000
 39
2
 62
0
  0
LINE
  8
0
  6
CONTINUOUS
 10
172.750000
 20
440.350000
 11
175.175000
 21
439.725000
 39
2
 62
0
  0
LINE
  8
0
  6
CONTINUOUS
 10
175.175000
 20
439.725000
 11
177.600000
 21
439.075000
 39
2
 62
0
  0
LINE
  8
0
  6
CONTINUOUS
 10
177.600000
 20
439.075000
 11
180.000000
 21
438.350000
 39
2
 62
0
  0
LINE
  8
0
  6
CONTINUOUS
 10
180.000000
 20
438.350000
 11
182.375000
 21
437.600000
 39
2
 62
0
  0
LINE
  8
0
  6
CONTINUOUS
 10
182.375000
 20
437.600000
 11
184.750000
 21
436.800000
 39
2
 62
0
  0
LINE
  8
0
  6
CONTINUOUS
 10
184.750000
 20
436.800000
 11
187.125000
 21
435.975000
 39
2
 62
0
  0
LINE
  8
0
  6
CONTINUOUS
 10
187.125000
 20
435.975000
 11
189.450000
 21
435.100000
 39
2
 62
0
  0
LINE
  8
0
  6
CONTINUOUS
 10
189.450000
 20
435.100000
 11
191.800000
 21
434.175000
 39
2
 62
0
  0
LINE
  8
0
  6
CONTINUOUS
 10
191.800000
 20
434.175000
 11
194.100000
 21
433.225000
 39
2
 62
0
  0
LINE
  8
0
  6
CONTINUOUS
 10
194.100000
 20
433.225000
 11
196.400000
 21
432.225000
 39
2
 62
0
  0
LINE
  8
0
  6
CONTINUOUS
 10
196.400000
 20
432.225000
 11
198.675000
 21
431.175000
 39
2
 62
0
  0
LINE
  8
0
  6
CONTINUOUS
 10
198.675000
 20
431.175000
 11
200.950000
 21
430.100000
 39
2
 62
0
  0
LINE
  8
0
  6
CONTINUOUS
 10
200.950000
 20
430.100000
 11
203.175000
 21
428.975000
 39
2
 62
0
  0
LINE
  8
0
  6
CONTINUOUS
 10
203.175000
 20
428.975000
 11
205.400000
 21
427.825000
 39
2
 62
0
  0
LINE
  8
0
  6
CONTINUOUS
 10
205.400000
 20
427.825000
 11
207.600000
 21
426.625000
 39
2
 62
0
  0
LINE
  8
0
  6
CONTINUOUS
 10
207.600000
 20
426.625000
 11
209.775000
 21
425.400000
 39
2
 62
0
  0
LINE
  8
0
  6
CONTINUOUS
 10
209.775000
 20
425.400000
 11
211.950000
 21
424.125000
 39
2
 62
0
  0
LINE
  8
0
  6
CONTINUOUS
 10
211.950000
 20
424.125000
 11
214.075000
 21
422.825000
 39
2
 62
0
  0
LINE
  8
0
  6
CONTINUOUS
 10
214.075000
 20
422.825000
 11
216.175000
 21
421.475000
 39
2
 62
0
  0
LINE
  8
0
  6
CONTINUOUS
 10
216.175000
 20
421.475000
 11
218.275000
 21
420.100000
 39
2
 62
0
  0
LINE
  8
0
  6
CONTINUOUS
 10
218.275000
 20
420.100000
 11
220.350000
 21
418.675000
 39
2
 62
0
  0
LINE
  8
0
  6
CONTINUOUS
 10
220.350000
 20
418.675000
 11
222.375000
 21
417.225000
 39
2
 62
0
  0
LINE
  8
0
  6
CONTINUOUS
 10
222.375000
 20
417.225000
 11
224.400000
 21
415.725000
 39
2
 62
0
  0
LINE
  8
0
  6
CONTINUOUS
 10
224.400000
 20
415.725000
 11
226.375000
 21
414.200000
 39
2
 62
0
  0
LINE
  8
0
  6
CONTINUOUS
 10
226.375000
 20
414.200000
 11
228.350000
 21
412.650000
 39
2
 62
0
  0
LINE
  8
0
  6
CONTINUOUS
 10
228.350000
 20
412.650000
 11
230.275000
 21
411.050000
 39
2
 62
0
  0
LINE
  8
0
  6
CONTINUOUS
 10
230.275000
 20
411.050000
 11
232.175000
 21
409.425000
 39
2
 62
0
  0
LINE
  8
0
  6
CONTINUOUS
 10
232.175000
 20
409.425000
 11
234.050000
 21
407.775000
 39
2
 62
0
  0
LINE
  8
0
  6
CONTINUOUS
 10
234.050000
 20
407.775000
 11
235.900000
 21
406.075000
 39
2
 62
0
  0
LINE
  8
0
  6
CONTINUOUS
 10
235.900000
 20
406.075000
 11
237.700000
 21
404.350000
 39
2
 62
0
  0
LINE
  8
0
  6
CONTINUOUS
 10
237.700000
 20
404.350000
 11
239.500000
 21
402.600000
 39
2
 62
0
  0
LINE
  8
0
  6
CONTINUOUS
 10
239.500000
 20
402.600000
 11
241.450000
 21
400.625000
 39
2
 62
0
  0
LINE
  8
0
  6
CONTINUOUS
 10
241.450000
 20
400.625000
 11
243.425000
 21
398.675000
 39
2
 62
0
  0
LINE
  8
0
  6
CONTINUOUS
 10
243.425000
 20
398.675000
 11
245.375000
 21
396.700000
 39
2
 62
0
  0
LINE
  8
0
  6
CONTINUOUS
 10
245.375000
 20
396.700000
 11
247.350000
 21
394.750000
 39
2
 62
0
  0
LINE
  8
0
  6
CONTINUOUS
 10
247.350000
 20
394.750000
 11
249.300000
 21
392.775000
 39
2
 62
0
  0
LINE
  8
0
  6
CONTINUOUS
 10
249.300000
 20
392.775000
 11
251.275000
 21
390.825000
 39
2
 62
0
  0
LINE
  8
0
  6
CONTINUOUS
 10
251.275000
 20
390.825000
 11
253.225000
 21
388.850000
 39
2
 62
0
  0
LINE
  8
0
  6
CONTINUOUS
 10
253.225000
 20
388.850000
 11
255.200000
 21
386.900000
 39
2
 62
0
  0
LINE
  8
0
  6
CONTINUOUS
 10
255.200000
 20
386.900000
 11
257.150000
 21
384.925000
 39
2
 62
0
  0
LINE
  8
0
  6
CONTINUOUS
 10
257.150000
 20
384.925000
 11
259.125000
 21
382.975000
 39
2
 62
0
  0
LINE
  8
0
  6
CONTINUOUS
 10
259.125000
 20
382.975000
 11
261.075000
 21
381.000000
 39
2
 62
0
  0
LINE
  8
0
  6
CONTINUOUS
 10
261.075000
 20
381.000000
 11
263.050000
 21
379.050000
 39
2
 62
0
  0
LINE
  8
0
  6
CONTINUOUS
 10
263.050000
 20
379.050000
 11
265.000000
 21
377.100000
 39
2
 62
0
  0
LINE
  8
0
  6
CONTINUOUS
 10
265.000000
 20
377.100000
 11
266.975000
 21
375.125000
 39
2
 62
0
  0
LINE
  8
0
  6
CONTINUOUS
 10
266.975000
 20
375.125000
 11
268.925000
 21
373.150000
 39
2
 62
0
  0
LINE
  8
0
  6
CONTINUOUS
 10
268.925000
 20
373.150000
 11
270.900000
 21
371.200000
 39
2
 62
0
  0
LINE
  8
0
  6
CONTINUOUS
 10
270.900000
 20
371.200000
 11
272.850000
 21
369.250000
 39
2
 62
0
  0
LINE
  8
0
  6
CONTINUOUS
 10
272.850000
 20
369.250000
 11
274.825000
 21
367.275000
 39
2
 62
0
  0
LINE
  8
0
  6
CONTINUOUS
 10
274.825000
 20
367.275000
 11
276.775000
 21
365.300000
 39
2
 62
0
  0
LINE
  8
0
  6
CONTINUOUS
 10
276.775000
 20
365.300000
 11
278.750000
 21
363.350000
 39
2
 62
0
  0
LINE
  8
0
  6
CONTINUOUS
 10
278.750000
 20
363.350000
 11
280.700000
 21
361.400000
 39
2
 62
0
  0
LINE
  8
0
  6
CONTINUOUS
 10
280.700000
 20
361.400000
 11
282.675000
 21
359.425000
 39
2
 62
0
  0
LINE
  8
0
  6
CONTINUOUS
 10
282.675000
 20
359.425000
 11
284.625000
 21
357.475000
 39
2
 62
0
  0
LINE
  8
0
  6
CONTINUOUS
 10
284.625000
 20
357.475000
 11
286.600000
 21
355.500000
 39
2
 62
0
  0
LINE
  8
0
  6
CONTINUOUS
 10
286.600000
 20
355.500000
 11
288.550000
 21
353.550000
 39
2
 62
0
  0
LINE
  8
0
  6
CONTINUOUS
 10
288.550000
 20
353.550000
 11
290.525000
 21
351.575000
 39
2
 62
0
  0
LINE
  8
0
  6
CONTINUOUS
 10
290.525000
 20
351.575000
 11
292.475000
 21
349.625000
 39
2
 62
0
  0
LINE
  8
0
  6
CONTINUOUS
 10
292.475000
 20
349.625000
 11
294.450000
 21
347.650000
 39
2
 62
0
  0
LINE
  8
0
  6
CONTINUOUS
 10
294.450000
 20
347.650000
 11
296.400000
 21
345.700000
 39
2
 62
0
  0
LINE
  8
0
  6
CONTINUOUS
 10
296.400000
 20
345.700000
 11
298.375000
 21
343.725000
 39
2
 62
0
  0
LINE
  8
0
  6
CONTINUOUS
 10
298.375000
 20
343.725000
 11
300.725000
 21
341.425000
 39
2
 62
0
  0
LINE
  8
0
  6
CONTINUOUS
 10
300.725000
 20
341.425000
 11
303.125000
 21
339.150000
 39
2
 62
0
  0
LINE
  8
0
  6
CONTINUOUS
 10
303.125000
 20
339.150000
 11
305.550000
 21
336.900000
 39
2
 62
0
  0
LINE
  8
0
  6
CONTINUOUS
 10
305.550000
 20
336.900000
 11
308.025000
 21
334.725000
 39
2
 62
0
  0
LINE
  8
0
  6
CONTINUOUS
 10
308.025000
 20
334.725000
 11
310.525000
 21
332.575000
 39
2
 62
0
  0
LINE
  8
0
  6
CONTINUOUS
 10
310.525000
 20
332.575000
 11
313.075000
 21
330.475000
 39
2
 62
0
  0
LINE
  8
0
  6
CONTINUOUS
 10
313.075000
 20
330.475000
 11
315.650000
 21
328.425000
 39
2
 62
0
  0
LINE
  8
0
  6
CONTINUOUS
 10
315.650000
 20
328.425000
 11
318.275000
 21
326.425000
 39
2
 62
0
  0
LINE
  8
0
  6
CONTINUOUS
 10
318.275000
 20
326.425000
 11
320.925000
 21
324.450000
 39
2
 62
0
  0
LINE
  8
0
  6
CONTINUOUS
 10
320.925000
 20
324.450000
 11
323.625000
 21
322.550000
 39
2
 62
0
  0
LINE
  8
0
  6
CONTINUOUS
 10
323.625000
 20
322.550000
 11
326.325000
 21
320.675000
 39
2
 62
0
  0
LINE
  8
0
  6
CONTINUOUS
 10
326.325000
 20
320.675000
 11
329.075000
 21
318.850000
 39
2
 62
0
  0
LINE
  8
0
  6
CONTINUOUS
 10
329.075000
 20
318.850000
 11
331.875000
 21
317.075000
 39
2
 62
0
  0
LINE
  8
0
  6
CONTINUOUS
 10
331.875000
 20
317.075000
 11
334.700000
 21
315.350000
 39
2
 62
0
  0
LINE
  8
0
  6
CONTINUOUS
 10
334.700000
 20
315.350000
 11
337.525000
 21
313.675000
 39
2
 62
0
  0
LINE
  8
0
  6
CONTINUOUS
 10
337.525000
 20
313.675000
 11
340.400000
 21
312.050000
 39
2
 62
0
  0
LINE
  8
0
  6
CONTINUOUS
 10
340.400000
 20
312.050000
 11
343.300000
 21
310.475000
 39
2
 62
0
  0
LINE
  8
0
  6
CONTINUOUS
 10
343.300000
 20
310.475000
 11
346.225000
 21
308.950000
 39
2
 62
0
  0
LINE
  8
0
  6
CONTINUOUS
 10
346.225000
 20
308.950000
 11
349.175000
 21
307.475000
 39
2
 62
0
  0
LINE
  8
0
  6
CONTINUOUS
 10
349.175000
 20
307.475000
 11
352.175000
 21
306.050000
 39
2
 62
0
  0
LINE
  8
0
  6
CONTINUOUS
 10
352.175000
 20
306.050000
 11
355.175000
 21
304.675000
 39
2
 62
0
  0
LINE
  8
0
  6
CONTINUOUS
 10
355.175000
 20
304.675000
 11
358.200000
 21
303.375000
 39
2
 62
0
  0
LINE
  8
0
  6
CONTINUOUS
 10
358.200000
 20
303.375000
 11
361.250000
 21
302.100000
 39
2
 62
0
  0
LINE
  8
0
  6
CONTINUOUS
 10
361.250000
 20
302.100000
 11
364.325000
 21
300.900000
 39
2
 62
0
  0
LINE
  8
0
  6
CONTINUOUS
 10
364.325000
 20
300.900000
 11
367.400000
 21
299.750000
 39
2
 62
0
  0
LINE
  8
0
  6
CONTINUOUS
 10
367.400000
 20
299.750000
 11
370.525000
 21
298.650000
 39
2
 62
0
  0
LINE
  8
0
  6
CONTINUOUS
 10
370.525000
 20
298.650000
 11
373.650000
 21
297.600000
 39
2
 62
0
  0
LINE
  8
0
  6
CONTINUOUS
 10
373.650000
 20
297.600000
 11
376.800000
 21
296.600000
 39
2
 62
0
  0
LINE
  8
0
  6
CONTINUOUS
 10
376.800000
 20
296.600000
 11
379.975000
 21
295.650000
 39
2
 62
0
  0
LINE
  8
0
  6
CONTINUOUS
 10
379.975000
 20
295.650000
 11
383.150000
 21
294.775000
 39
2
 62
0
  0
LINE
  8
0
  6
CONTINUOUS
 10
383.150000
 20
294.775000
 11
386.350000
 21
293.950000
 39
2
 62
0
  0
LINE
  8
0
  6
CONTINUOUS
 10
386.350000
 20
293.950000
 11
389.575000
 21
293.175000
 39
2
 62
0
  0
LINE
  8
0
  6
CONTINUOUS
 10
389.575000
 20
293.175000
 11
392.775000
 21
292.475000
 39
2
 62
0
  0
LINE
  8
0
  6
CONTINUOUS
 10
392.775000
 20
292.475000
 11
396.025000
 21
291.800000
 39
2
 62
0
  0
LINE
  8
0
  6
CONTINUOUS
 10
396.025000
 20
291.800000
 11
399.275000
 21
291.200000
 39
2
 62
0
  0
LINE
  8
0
  6
CONTINUOUS
 10
399.275000
 20
291.200000
 11
402.525000
 21
290.675000
 39
2
 62
0
  0
LINE
  8
0
  6
CONTINUOUS
 10
402.525000
 20
290.675000
 11
405.800000
 21
290.175000
 39
2
 62
0
  0
LINE
  8
0
  6
CONTINUOUS
 10
405.800000
 20
290.175000
 11
409.075000
 21
289.750000
 39
2
 62
0
  0
LINE
  8
0
  6
CONTINUOUS
 10
409.075000
 20
289.750000
 11
412.350000
 21
289.375000
 39
2
 62
0
  0
LINE
  8
0
  6
CONTINUOUS
 10
412.350000
 20
289.375000
 11
415.625000
 21
289.050000
 39
2
 62
0
  0
LINE
  8
0
  6
CONTINUOUS
 10
415.625000
 20
289.050000
 11
418.925000
 21
288.800000
 39
2
 62
0
  0
LINE
  8
0
  6
CONTINUOUS
 10
418.925000
 20
288.800000
 11
422.225000
 21
288.600000
 39
2
 62
0
  0
LINE
  8
0
  6
CONTINUOUS
 10
422.225000
 20
288.600000
 11
425.525000
 21
288.450000
 39
2
 62
0
  0
LINE
  8
0
  6
CONTINUOUS
 10
425.525000
 20
288.450000
 11
428.825000
 21
288.375000
 39
2
 62
0
  0
LINE
  8
0
  6
CONTINUOUS
 10
428.825000
 20
288.375000
 11
432.125000
 21
288.325000
 39
2
 62
0
  0
LINE
  8
0
  6
CONTINUOUS
 10
432.125000
 20
288.325000
 11
435.425000
 21
288.375000
 39
2
 62
0
  0
LINE
  8
0
  6
CONTINUOUS
 10
435.425000
 20
288.375000
 11
438.725000
 21
288.450000
 39
2
 62
0
  0
LINE
  8
0
  6
CONTINUOUS
 10
438.725000
 20
288.450000
 11
442.025000
 21
288.600000
 39
2
 62
0
  0
LINE
  8
0
  6
CONTINUOUS
 10
442.025000
 20
288.600000
 11
445.325000
 21
288.800000
 39
2
 62
0
  0
LINE
  8
0
  6
CONTINUOUS
 10
445.325000
 20
288.800000
 11
448.600000
 21
289.050000
 39
2
 62
0
  0
LINE
  8
0
  6
CONTINUOUS
 10
448.600000
 20
289.050000
 11
451.900000
 21
289.375000
 39
2
 62
0
  0
LINE
  8
0
  6
CONTINUOUS
 10
451.900000
 20
289.375000
 11
455.175000
 21
289.750000
 39
2
 62
0
  0
LINE
  8
0
  6
CONTINUOUS
 10
455.175000
 20
289.750000
 11
458.450000
 21
290.175000
 39
2
 62
0
  0
LINE
  8
0
  6
CONTINUOUS
 10
458.450000
 20
290.175000
 11
461.700000
 21
290.675000
 39
2
 62
0
  0
LINE
  8
0
  6
CONTINUOUS
 10
461.700000
 20
290.675000
 11
464.950000
 21
291.200000
 39
2
 62
0
  0
LINE
  8
0
  6
CONTINUOUS
 10
464.950000
 20
291.200000
 11
468.200000
 21
291.800000
 39
2
 62
0
  0
LINE
  8
0
  6
CONTINUOUS
 10
468.200000
 20
291.800000
 11
471.425000
 21
292.475000
 39
2
 62
0
  0
LINE
  8
0
  6
CONTINUOUS
 10
471.425000
 20
292.475000
 11
474.650000
 21
293.200000
 39
2
 62
0
  0
LINE
  8
0
  6
CONTINUOUS
 10
474.650000
 20
293.200000
 11
477.875000
 21
293.950000
 39
2
 62
0
  0
LINE
  8
0
  6
CONTINUOUS
 10
477.875000
 20
293.950000
 11
481.075000
 21
294.775000
 39
2
 62
0
  0
LINE
  8
0
  6
CONTINUOUS
 10
481.075000
 20
294.775000
 11
484.250000
 21
295.675000
 39
2
 62
0
  0
LINE
  8
0
  6
CONTINUOUS
 10
484.250000
 20
295.675000
 11
487.400000
 21
296.600000
 39
2
 62
0
  0
LINE
  8
0
  6
CONTINUOUS
 10
487.400000
 20
296.600000
 11
490.550000
 21
297.600000
 39
2
 62
0
  0
LINE
  8
0
  6
CONTINUOUS
 10
490.550000
 20
297.600000
 11
493.675000
 21
298.650000
 39
2
 62
0
  0
LINE
  8
0
  6
CONTINUOUS
 10
493.675000
 20
298.650000
 11
496.800000
 21
299.750000
 39
2
 62
0
  0
LINE
  8
0
  6
CONTINUOUS
 10
496.800000
 20
299.750000
 11
499.875000
 21
300.900000
 39
2
 62
0
  0
LINE
  8
0
  6
CONTINUOUS
 10
499.875000
 20
300.900000
 11
502.950000
 21
302.100000
 39
2
 62
0
  0
LINE
  8
0
  6
CONTINUOUS
 10
502.950000
 20
302.100000
 11
506.000000
 21
303.375000
 39
2
 62
0
  0
LINE
  8
0
  6
CONTINUOUS
 10
506.000000
 20
303.375000
 11
509.025000
 21
304.700000
 39
2
 62
0
  0
LINE
  8
0
  6
CONTINUOUS
 10
509.025000
 20
304.700000
 11
512.025000
 21
306.050000
 39
2
 62
0
  0
LINE
  8
0
  6
CONTINUOUS
 10
512.025000
 20
306.050000
 11
515.000000
 21
307.475000
 39
2
 62
0
  0
LINE
  8
0
  6
CONTINUOUS
 10
515.000000
 20
307.475000
 11
517.950000
 21
308.950000
 39
2
 62
0
  0
LINE
  8
0
  6
CONTINUOUS
 10
517.950000
 20
308.950000
 11
520.900000
 21
310.475000
 39
2
 62
0
  0
LINE
  8
0
  6
CONTINUOUS
 10
520.900000
 20
310.475000
 11
523.800000
 21
312.050000
 39
2
 62
0
  0
LINE
  8
0
  6
CONTINUOUS
 10
523.800000
 20
312.050000
 11
526.650000
 21
313.675000
 39
2
 62
0
  0
LINE
  8
0
  6
CONTINUOUS
 10
526.650000
 20
313.675000
 11
529.500000
 21
315.350000
 39
2
 62
0
  0
LINE
  8
0
  6
CONTINUOUS
 10
529.500000
 20
315.350000
 11
532.325000
 21
317.075000
 39
2
 62
0
  0
LINE
  8
0
  6
CONTINUOUS
 10
532.325000
 20
317.075000
 11
535.100000
 21
318.850000
 39
2
 62
0
  0
LINE
  8
0
  6
CONTINUOUS
 10
535.100000
 20
318.850000
 11
537.850000
 21
320.675000
 39
2
 62
0
  0
LINE
  8
0
  6
CONTINUOUS
 10
537.850000
 20
320.675000
 11
540.575000
 21
322.550000
 39
2
 62
0
  0
LINE
  8
0
  6
CONTINUOUS
 10
540.575000
 20
322.550000
 11
543.250000
 21
324.450000
 39
2
 62
0
  0
LINE
  8
0
  6
CONTINUOUS
 10
543.250000
 20
324.450000
 11
545.925000
 21
326.425000
 39
2
 62
0
  0
LINE
  8
0
  6
CONTINUOUS
 10
545.925000
 20
326.425000
 11
548.525000
 21
328.425000
 39
2
 62
0
  0
LINE
  8
0
  6
CONTINUOUS
 10
548.525000
 20
328.425000
 11
551.125000
 21
330.475000
 39
2
 62
0
  0
LINE
  8
0
  6
CONTINUOUS
 10
551.125000
 20
330.475000
 11
553.650000
 21
332.575000
 39
2
 62
0
  0
LINE
  8
0
  6
CONTINUOUS
 10
553.650000
 20
332.575000
 11
556.175000
 21
334.725000
 39
2
 62
0
  0
LINE
  8
0
  6
CONTINUOUS
 10
556.175000
 20
334.725000
 11
558.650000
 21
336.900000
 39
2
 62
0
  0
LINE
  8
0
  6
CONTINUOUS
 10
558.650000
 20
336.900000
 11
561.075000
 21
339.150000
 39
2
 62
0
  0
LINE
  8
0
  6
CONTINUOUS
 10
561.075000
 20
339.150000
 11
563.475000
 21
341.425000
 39
2
 62
0
  0
LINE
  8
0
  6
CONTINUOUS
 10
563.475000
 20
341.425000
 11
565.825000
 21
343.725000
 39
2
 62
0
  0
LINE
  8
0
  6
CONTINUOUS
 10
565.825000
 20
343.725000
 11
567.300000
 21
345.200000
 39
2
 62
0
  0
LINE
  8
0
  6
CONTINUOUS
 10
567.300000
 20
345.200000
 11
568.750000
 21
346.675000
 39
2
 62
0
  0
LINE
  8
0
  6
CONTINUOUS
 10
568.750000
 20
346.675000
 11
570.225000
 21
348.125000
 39
2
 62
0
  0
LINE
  8
0
  6
CONTINUOUS
 10
570.225000
 20
348.125000
 11
571.700000
 21
349.600000
 39
2
 62
0
  0
LINE
  8
0
  6
CONTINUOUS
 10
571.700000
 20
349.600000
 11
573.175000
 21
351.075000
 39
2
 62
0
  0
LINE
  8
0
  6
CONTINUOUS
 10
573.175000
 20
351.075000
 11
574.625000
 21
352.550000
 39
2
 62
0
  0
LINE
  8
0
  6
CONTINUOUS
 10
574.625000
 20
352.550000
 11
576.100000
 21
354.000000
 39
2
 62
0
  0
LINE
  8
0
  6
CONTINUOUS
 10
576.100000
 20
354.000000
 11
577.575000
 21
355.475000
 39
2
 62
0
  0
LINE
  8
0
  6
CONTINUOUS
 10
577.575000
 20
355.475000
 11
579.025000
 21
356.950000
 39
2
 62
0
  0
LINE
  8
0
  6
CONTINUOUS
 10
579.025000
 20
356.950000
 11
580.500000
 21
358.400000
 39
2
 62
0
  0
LINE
  8
0
  6
CONTINUOUS
 10
580.500000
 20
358.400000
 11
581.975000
 21
359.875000
 39
2
 62
0
  0
LINE
  8
0
  6
CONTINUOUS
 10
581.975000
 20
359.875000
 11
583.450000
 21
361.350000
 39
2
 62
0
  0
LINE
  8
0
  6
CONTINUOUS
 10
583.450000
 20
361.350000
 11
584.925000
 21
362.825000
 39
2
 62
0
  0
LINE
  8
0
  6
CONTINUOUS
 10
584.925000
 20
362.825000
 11
586.375000
 21
364.275000
 39
2
 62
0
  0
LINE
  8
0
  6
CONTINUOUS
 10
586.375000
 20
364.275000
 11
587.850000
 21
365.750000
 39
2
 62
0
  0
LINE
  8
0
  6
CONTINUOUS
 10
587.850000
 20
365.750000
 11
589.325000
 21
367.225000
 39
2
 62
0
  0
LINE
  8
0
  6
CONTINUOUS
 10
589.325000
 20
367.225000
 11
590.775000
 21
368.675000
 39
2
 62
0
  0
LINE
  8
0
  6
CONTINUOUS
 10
590.775000
 20
368.675000
 11
592.250000
 21
370.150000
 39
2
 62
0
  0
LINE
  8
0
  6
CONTINUOUS
 10
592.250000
 20
370.150000
 11
593.725000
 21
371.625000
 39
2
 62
0
  0
LINE
  8
0
  6
CONTINUOUS
 10
593.725000
 20
371.625000
 11
595.200000
 21
373.100000
 39
2
 62
0
  0
LINE
  8
0
  6
CONTINUOUS
 10
595.200000
 20
373.100000
 11
596.650000
 21
374.575000
 39
2
 62
0
  0
LINE
  8
0
  6
CONTINUOUS
 10
-26.525100
 20
404.025000
 11
-25.075200
 21
405.500000
 39
2
 62
0
  0
LINE
  8
0
  6
CONTINUOUS
 10
-25.075200
 20
405.500000
 11
-23.600100
 21
406.950000
 39
2
 62
0
  0
LINE
  8
0
  6
CONTINUOUS
 10
-23.600100
 20
406.950000
 11
-22.125000
 21
408.425000
 39
2
 62
0
  0
LINE
  8
0
  6
CONTINUOUS
 10
-22.125000
 20
408.425000
 11
-20.650100
 21
409.900000
 39
2
 62
0
  0
LINE
  8
0
  6
CONTINUOUS
 10
-20.650100
 20
409.900000
 11
-19.200200
 21
411.375000
 39
2
 62
0
  0
LINE
  8
0
  6
CONTINUOUS
 10
-19.200200
 20
411.375000
 11
-17.725100
 21
412.825000
 39
2
 62
0
  0
LINE
  8
0
  6
CONTINUOUS
 10
-17.725100
 20
412.825000
 11
-16.250000
 21
414.300000
 39
2
 62
0
  0
LINE
  8
0
  6
CONTINUOUS
 10
-16.250000
 20
414.300000
 11
-14.800000
 21
415.775000
 39
2
 62
0
  0
LINE
  8
0
  6
CONTINUOUS
 10
-14.800000
 20
415.775000
 11
-13.325200
 21
417.250000
 39
2
 62
0
  0
LINE
  8
0
  6
CONTINUOUS
 10
-13.325200
 20
417.250000
 11
-11.850100
 21
418.700000
 39
2
 62
0
  0
LINE
  8
0
  6
CONTINUOUS
 10
-11.850100
 20
418.700000
 11
-10.375000
 21
420.175000
 39
2
 62
0
  0
LINE
  8
0
  6
CONTINUOUS
 10
-10.375000
 20
420.175000
 11
-8.925000
 21
421.650000
 39
2
 62
0
  0
LINE
  8
0
  6
CONTINUOUS
 10
-8.925000
 20
421.650000
 11
-7.450200
 21
423.100000
 39
2
 62
0
  0
LINE
  8
0
  6
CONTINUOUS
 10
-7.450200
 20
423.100000
 11
-5.975100
 21
424.575000
 39
2
 62
0
  0
LINE
  8
0
  6
CONTINUOUS
 10
-5.975100
 20
424.575000
 11
-4.500000
 21
426.050000
 39
2
 62
0
  0
LINE
  8
0
  6
CONTINUOUS
 10
-4.500000
 20
426.050000
 11
-3.050000
 21
427.525000
 39
2
 62
0
  0
LINE
  8
0
  6
CONTINUOUS
 10
-3.050000
 20
427.525000
 11
-1.575200
 21
428.975000
 39
2
 62
0
  0
LINE
  8
0
  6
CONTINUOUS
 10
-1.575200
 20
428.975000
 11
-0.100100
 21
430.450000
 39
2
 62
0
  0
LINE
  8
0
  6
CONTINUOUS
 10
-0.100100
 20
430.450000
 11
1.350000
 21
431.925000
 39
2
 62
0
  0
LINE
  8
0
  6
CONTINUOUS
 10
1.350000
 20
431.925000
 11
2.825000
 21
433.400000
 39
2
 62
0
  0
LINE
  8
0
  6
CONTINUOUS
 10
2.825000
 20
433.400000
 11
4.300000
 21
434.850000
 39
2
 62
0
  0
LINE
  8
0
  6
CONTINUOUS
 10
4.300000
 20
434.850000
 11
6.650000
 21
437.175000
 39
2
 62
0
  0
LINE
  8
0
  6
CONTINUOUS
 10
6.650000
 20
437.175000
 11
9.050000
 21
439.450000
 39
2
 62
0
  0
LINE
  8
0
  6
CONTINUOUS
 10
9.050000
 20
439.450000
 11
11.475000
 21
441.675000
 39
2
 62
0
  0
LINE
  8
0
  6
CONTINUOUS
 10
11.475000
 20
441.675000
 11
13.950000
 21
443.850000
 39
2
 62
0
  0
LINE
  8
0
  6
CONTINUOUS
 10
13.950000
 20
443.850000
 11
16.450000
 21
446.000000
 39
2
 62
0
  0
LINE
  8
0
  6
CONTINUOUS
 10
16.450000
 20
446.000000
 11
19.000000
 21
448.100000
 39
2
 62
0
  0
LINE
  8
0
  6
CONTINUOUS
 10
19.000000
 20
448.100000
 11
21.600000
 21
450.150000
 39
2
 62
0
  0
LINE
  8
0
  6
CONTINUOUS
 10
21.600000
 20
450.150000
 11
24.200000
 21
452.175000
 39
2
 62
0
  0
LINE
  8
0
  6
CONTINUOUS
 10
24.200000
 20
452.175000
 11
26.850000
 21
454.125000
 39
2
 62
0
  0
LINE
  8
0
  6
CONTINUOUS
 10
26.850000
 20
454.125000
 11
29.550000
 21
456.050000
 39
2
 62
0
  0
LINE
  8
0
  6
CONTINUOUS
 10
29.550000
 20
456.050000
 11
32.275000
 21
457.900000
 39
2
 62
0
  0
LINE
  8
0
  6
CONTINUOUS
 10
32.275000
 20
457.900000
 11
35.025000
 21
459.725000
 39
2
 62
0
  0
LINE
  8
0
  6
CONTINUOUS
 10
35.025000
 20
459.725000
 11
37.800000
 21
461.500000
 39
2
 62
0
  0
LINE
  8
0
  6
CONTINUOUS
 10
37.800000
 20
461.500000
 11
40.625000
 21
463.225000
 39
2
 62
0
  0
LINE
  8
0
  6
CONTINUOUS
 10
40.625000
 20
463.225000
 11
43.475000
 21
464.900000
 39
2
 62
0
  0
LINE
  8
0
  6
CONTINUOUS
 10
43.475000
 20
464.900000
 11
46.325000
 21
466.525000
 39
2
 62
0
  0
LINE
  8
0
  6
CONTINUOUS
 10
46.325000
 20
466.525000
 11
49.225000
 21
468.100000
 39
2
 62
0
  0
LINE
  8
0
  6
CONTINUOUS
 10
49.225000
 20
468.100000
 11
52.175000
 21
469.625000
 39
2
 62
0
  0
LINE
  8
0
  6
CONTINUOUS
 10
52.175000
 20
469.625000
 11
55.125000
 21
471.100000
 39
2
 62
0
  0
LINE
  8
0
  6
CONTINUOUS
 10
55.125000
 20
471.100000
 11
58.100000
 21
472.525000
 39
2
 62
0
  0
LINE
  8
0
  6
CONTINUOUS
 10
58.100000
 20
472.525000
 11
61.100000
 21
473.900000
 39
2
 62
0
  0
LINE
  8
0
  6
CONTINUOUS
 10
61.100000
 20
473.900000
 11
64.125000
 21
475.225000
 39
2
 62
0
  0
LINE
  8
0
  6
CONTINUOUS
 10
64.125000
 20
475.225000
 11
67.175000
 21
476.475000
 39
2
 62
0
  0
LINE
  8
0
  6
CONTINUOUS
 10
67.175000
 20
476.475000
 11
70.250000
 21
477.700000
 39
2
 62
0
  0
LINE
  8
0
  6
CONTINUOUS
 10
70.250000
 20
477.700000
 11
73.350000
 21
478.850000
 39
2
 62
0
  0
LINE
  8
0
  6
CONTINUOUS
 10
73.350000
 20
478.850000
 11
76.450000
 21
479.950000
 39
2
 62
0
  0
LINE
  8
0
  6
CONTINUOUS
 10
76.450000
 20
479.950000
 11
79.575000
 21
481.000000
 39
2
 62
0
  0
LINE
  8
0
  6
CONTINUOUS
 10
79.575000
 20
481.000000
 11
82.725000
 21
481.975000
 39
2
 62
0
  0
LINE
  8
0
  6
CONTINUOUS
 10
82.725000
 20
481.975000
 11
85.900000
 21
482.925000
 39
2
 62
0
  0
LINE
  8
0
  6
CONTINUOUS
 10
85.900000
 20
482.925000
 11
89.100000
 21
483.800000
 39
2
 62
0
  0
LINE
  8
0
  6
CONTINUOUS
 10
89.100000
 20
483.800000
 11
92.275000
 21
484.625000
 39
2
 62
0
  0
LINE
  8
0
  6
CONTINUOUS
 10
92.275000
 20
484.625000
 11
95.500000
 21
485.400000
 39
2
 62
0
  0
LINE
  8
0
  6
CONTINUOUS
 10
95.500000
 20
485.400000
 11
98.725000
 21
486.125000
 39
2
 62
0
  0
LINE
  8
0
  6
CONTINUOUS
 10
98.725000
 20
486.125000
 11
101.950000
 21
486.775000
 39
2
 62
0
  0
LINE
  8
0
  6
CONTINUOUS
 10
101.950000
 20
486.775000
 11
105.200000
 21
487.375000
 39
2
 62
0
  0
LINE
  8
0
  6
CONTINUOUS
 10
105.200000
 20
487.375000
 11
108.450000
 21
487.925000
 39
2
 62
0
  0
LINE
  8
0
  6
CONTINUOUS
 10
108.450000
 20
487.925000
 11
111.725000
 21
488.400000
 39
2
 62
0
  0
LINE
  8
0
  6
CONTINUOUS
 10
111.725000
 20
488.400000
 11
115.000000
 21
488.850000
 39
2
 62
0
  0
LINE
  8
0
  6
CONTINUOUS
 10
115.000000
 20
488.850000
 11
118.275000
 21
489.225000
 39
2
 62
0
  0
LINE
  8
0
  6
CONTINUOUS
 10
118.275000
 20
489.225000
 11
121.575000
 21
489.525000
 39
2
 62
0
  0
LINE
  8
0
  6
CONTINUOUS
 10
121.575000
 20
489.525000
 11
124.850000
 21
489.800000
 39
2
 62
0
  0
LINE
  8
0
  6
CONTINUOUS
 10
124.850000
 20
489.800000
 11
128.150000
 21
490.000000
 39
2
 62
0
  0
LINE
  8
0
  6
CONTINUOUS
 10
128.150000
 20
490.000000
 11
131.450000
 21
490.125000
 39
2
 62
0
  0
LINE
  8
0
  6
CONTINUOUS
 10
131.450000
 20
490.125000
 11
134.750000
 21
490.225000
 39
2
 62
0
  0
LINE
  8
0
  6
CONTINUOUS
 10
134.750000
 20
490.225000
 11
138.050000
 21
490.250000
 39
2
 62
0
  0
LINE
  8
0
  6
CONTINUOUS
 10
138.050000
 20
490.250000
 11
141.350000
 21
490.225000
 39
2
 62
0
  0
LINE
  8
0
  6
CONTINUOUS
 10
141.350000
 20
490.225000
 11
144.650000
 21
490.125000
 39
2
 62
0
  0
LINE
  8
0
  6
CONTINUOUS
 10
144.650000
 20
490.125000
 11
147.950000
 21
490.000000
 39
2
 62
0
  0
LINE
  8
0
  6
CONTINUOUS
 10
147.950000
 20
490.000000
 11
151.250000
 21
489.775000
 39
2
 62
0
  0
LINE
  8
0
  6
CONTINUOUS
 10
151.250000
 20
489.775000
 11
154.550000
 21
489.525000
 39
2
 62
0
  0
LINE
  8
0
  6
CONTINUOUS
 10
154.550000
 20
489.525000
 11
157.825000
 21
489.200000
 39
2
 62
0
  0
LINE
  8
0
  6
CONTINUOUS
 10
157.825000
 20
489.200000
 11
161.100000
 21
488.825000
 39
2
 62
0
  0
LINE
  8
0
  6
CONTINUOUS
 10
161.100000
 20
488.825000
 11
164.375000
 21
488.400000
 39
2
 62
0
  0
LINE
  8
0
  6
CONTINUOUS
 10
164.375000
 20
488.400000
 11
167.650000
 21
487.925000
 39
2
 62
0
  0
LINE
  8
0
  6
CONTINUOUS
 10
167.650000
 20
487.925000
 11
170.900000
 21
487.375000
 39
2
 62
0
  0
LINE
  8
0
  6
CONTINUOUS
 10
170.900000
 20
487.375000
 11
174.125000
 21
486.775000
 39
2
 62
0
  0
LINE
  8
0
  6
CONTINUOUS
 10
174.125000
 20
486.775000
 11
177.375000
 21
486.125000
 39
2
 62
0
  0
LINE
  8
0
  6
CONTINUOUS
 10
177.375000
 20
486.125000
 11
180.600000
 21
485.400000
 39
2
 62
0
  0
LINE
  8
0
  6
CONTINUOUS
 10
180.600000
 20
485.400000
 11
183.800000
 21
484.625000
 39
2
 62
0
  0
LINE
  8
0
  6
CONTINUOUS
 10
183.800000
 20
484.625000
 11
187.000000
 21
483.800000
 39
2
 62
0
  0
LINE
  8
0
  6
CONTINUOUS
 10
187.000000
 20
483.800000
 11
190.175000
 21
482.925000
 39
2
 62
0
  0
LINE
  8
0
  6
CONTINUOUS
 10
190.175000
 20
482.925000
 11
193.350000
 21
481.975000
 39
2
 62
0
  0
LINE
  8
0
  6
CONTINUOUS
 10
193.350000
 20
481.975000
 11
196.475000
 21
480.975000
 39
2
 62
0
  0
LINE
  8
0
  6
CONTINUOUS
 10
196.475000
 20
480.975000
 11
199.625000
 21
479.950000
 39
2
 62
0
  0
LINE
  8
0
  6
CONTINUOUS
 10
199.625000
 20
479.950000
 11
202.725000
 21
478.850000
 39
2
 62
0
  0
LINE
  8
0
  6
CONTINUOUS
 10
202.725000
 20
478.850000
 11
205.825000
 21
477.675000
 39
2
 62
0
  0
LINE
  8
0
  6
CONTINUOUS
 10
205.825000
 20
477.675000
 11
208.875000
 21
476.475000
 39
2
 62
0
  0
LINE
  8
0
  6
CONTINUOUS
 10
208.875000
 20
476.475000
 11
211.925000
 21
475.200000
 39
2
 62
0
  0
LINE
  8
0
  6
CONTINUOUS
 10
211.925000
 20
475.200000
 11
214.975000
 21
473.900000
 39
2
 62
0
  0
LINE
  8
0
  6
CONTINUOUS
 10
214.975000
 20
473.900000
 11
217.975000
 21
472.525000
 39
2
 62
0
  0
LINE
  8
0
  6
CONTINUOUS
 10
217.975000
 20
472.525000
 11
220.950000
 21
471.100000
 39
2
 62
0
  0
LINE
  8
0
  6
CONTINUOUS
 10
220.950000
 20
471.100000
 11
223.900000
 21
469.625000
 39
2
 62
0
  0
LINE
  8
0
  6
CONTINUOUS
 10
223.900000
 20
469.625000
 11
226.825000
 21
468.100000
 39
2
 62
0
  0
LINE
  8
0
  6
CONTINUOUS
 10
226.825000
 20
468.100000
 11
229.725000
 21
466.525000
 39
2
 62
0
  0
LINE
  8
0
  6
CONTINUOUS
 10
229.725000
 20
466.525000
 11
232.600000
 21
464.900000
 39
2
 62
0
  0
LINE
  8
0
  6
CONTINUOUS
 10
232.600000
 20
464.900000
 11
235.450000
 21
463.225000
 39
2
 62
0
  0
LINE
  8
0
  6
CONTINUOUS
 10
235.450000
 20
463.225000
 11
238.250000
 21
461.500000
 39
2
 62
0
  0
LINE
  8
0
  6
CONTINUOUS
 10
238.250000
 20
461.500000
 11
241.050000
 21
459.725000
 39
2
 62
0
  0
LINE
  8
0
  6
CONTINUOUS
 10
241.050000
 20
459.725000
 11
243.800000
 21
457.900000
 39
2
 62
0
  0
LINE
  8
0
  6
CONTINUOUS
 10
243.800000
 20
457.900000
 11
246.500000
 21
456.050000
 39
2
 62
0
  0
LINE
  8
0
  6
CONTINUOUS
 10
246.500000
 20
456.050000
 11
249.200000
 21
454.125000
 39
2
 62
0
  0
LINE
  8
0
  6
CONTINUOUS
 10
249.200000
 20
454.125000
 11
251.850000
 21
452.175000
 39
2
 62
0
  0
LINE
  8
0
  6
CONTINUOUS
 10
251.850000
 20
452.175000
 11
254.450000
 21
450.150000
 39
2
 62
0
  0
LINE
  8
0
  6
CONTINUOUS
 10
254.450000
 20
450.150000
 11
257.050000
 21
448.100000
 39
2
 62
0
  0
LINE
  8
0
  6
CONTINUOUS
 10
257.050000
 20
448.100000
 11
259.600000
 21
446.000000
 39
2
 62
0
  0
LINE
  8
0
  6
CONTINUOUS
 10
259.600000
 20
446.000000
 11
262.100000
 21
443.850000
 39
2
 62
0
  0
LINE
  8
0
  6
CONTINUOUS
 10
262.100000
 20
443.850000
 11
264.575000
 21
441.675000
 39
2
 62
0
  0
LINE
  8
0
  6
CONTINUOUS
 10
264.575000
 20
441.675000
 11
267.000000
 21
439.450000
 39
2
 62
0
  0
LINE
  8
0
  6
CONTINUOUS
 10
267.000000
 20
439.450000
 11
269.400000
 21
437.175000
 39
2
 62
0
  0
LINE
  8
0
  6
CONTINUOUS
 10
269.400000
 20
437.175000
 11
271.750000
 21
434.850000
 39
2
 62
0
  0
LINE
  8
0
  6
CONTINUOUS
 10
271.750000
 20
434.850000
 11
273.725000
 21
432.900000
 39
2
 62
0
  0
LINE
  8
0
  6
CONTINUOUS
 10
273.725000
 20
432.900000
 11
275.675000
 21
430.925000
 39
2
 62
0
  0
LINE
  8
0
  6
CONTINUOUS
 10
275.675000
 20
430.925000
 11
277.650000
 21
428.975000
 39
2
 62
0
  0
LINE
  8
0
  6
CONTINUOUS
 10
277.650000
 20
428.975000
 11
279.600000
 21
427.000000
 39
2
 62
0
  0
LINE
  8
0
  6
CONTINUOUS
 10
279.600000
 20
427.000000
 11
281.575000
 21
425.050000
 39
2
 62
0
  0
LINE
  8
0
  6
CONTINUOUS
 10
281.575000
 20
425.050000
 11
283.525000
 21
423.075000
 39
2
 62
0
  0
LINE
  8
0
  6
CONTINUOUS
 10
283.525000
 20
423.075000
 11
285.500000
 21
421.125000
 39
2
 62
0
  0
LINE
  8
0
  6
CONTINUOUS
 10
285.500000
 20
421.125000
 11
287.450000
 21
419.150000
 39
2
 62
0
  0
LINE
  8
0
  6
CONTINUOUS
 10
287.450000
 20
419.150000
 11
289.425000
 21
417.200000
 39
2
 62
0
  0
LINE
  8
0
  6
CONTINUOUS
 10
289.425000
 20
417.200000
 11
291.375000
 21
415.225000
 39
2
 62
0
  0
LINE
  8
0
  6
CONTINUOUS
 10
291.375000
 20
415.225000
 11
293.350000
 21
413.275000
 39
2
 62
0
  0
LINE
  8
0
  6
CONTINUOUS
 10
293.350000
 20
413.275000
 11
295.300000
 21
411.300000
 39
2
 62
0
  0
LINE
  8
0
  6
CONTINUOUS
 10
295.300000
 20
411.300000
 11
297.275000
 21
409.350000
 39
2
 62
0
  0
LINE
  8
0
  6
CONTINUOUS
 10
297.275000
 20
409.350000
 11
299.225000
 21
407.375000
 39
2
 62
0
  0
LINE
  8
0
  6
CONTINUOUS
 10
299.225000
 20
407.375000
 11
301.200000
 21
405.425000
 39
2
 62
0
  0
LINE
  8
0
  6
CONTINUOUS
 10
301.200000
 20
405.425000
 11
303.150000
 21
403.450000
 39
2
 62
0
  0
LINE
  8
0
  6
CONTINUOUS
 10
303.150000
 20
403.450000
 11
305.125000
 21
401.500000
 39
2
 62
0
  0
LINE
  8
0
  6
CONTINUOUS
 10
305.125000
 20
401.500000
 11
307.075000
 21
399.525000
 39
2
 62
0
  0
LINE
  8
0
  6
CONTINUOUS
 10
307.075000
 20
399.525000
 11
309.050000
 21
397.575000
 39
2
 62
0
  0
LINE
  8
0
  6
CONTINUOUS
 10
309.050000
 20
397.575000
 11
311.000000
 21
395.625000
 39
2
 62
0
  0
LINE
  8
0
  6
CONTINUOUS
 10
311.000000
 20
395.625000
 11
312.950000
 21
393.650000
 39
2
 62
0
  0
LINE
  8
0
  6
CONTINUOUS
 10
312.950000
 20
393.650000
 11
314.925000
 21
391.675000
 39
2
 62
0
  0
LINE
  8
0
  6
CONTINUOUS
 10
314.925000
 20
391.675000
 11
316.900000
 21
389.725000
 39
2
 62
0
  0
LINE
  8
0
  6
CONTINUOUS
 10
316.900000
 20
389.725000
 11
318.850000
 21
387.775000
 39
2
 62
0
  0
LINE
  8
0
  6
CONTINUOUS
 10
318.850000
 20
387.775000
 11
320.825000
 21
385.800000
 39
2
 62
0
  0
LINE
  8
0
  6
CONTINUOUS
 10
320.825000
 20
385.800000
 11
322.775000
 21
383.825000
 39
2
 62
0
  0
LINE
  8
0
  6
CONTINUOUS
 10
322.775000
 20
383.825000
 11
324.750000
 21
381.875000
 39
2
 62
0
  0
LINE
  8
0
  6
CONTINUOUS
 10
324.750000
 20
381.875000
 11
326.700000
 21
379.900000
 39
2
 62
0
  0
LINE
  8
0
  6
CONTINUOUS
 10
326.700000
 20
379.900000
 11
328.675000
 21
377.950000
 39
2
 62
0
  0
LINE
  8
0
  6
CONTINUOUS
 10
328.675000
 20
377.950000
 11
330.625000
 21
376.000000
 39
2
 62
0
  0
LINE
  8
0
  6
CONTINUOUS
 10
330.625000
 20
376.000000
 11
332.425000
 21
374.225000
 39
2
 62
0
  0
LINE
  8
0
  6
CONTINUOUS
 10
332.425000
 20
374.225000
 11
334.225000
 21
372.500000
 39
2
 62
0
  0
LINE
  8
0
  6
CONTINUOUS
 10
334.225000
 20
372.500000
 11
336.075000
 21
370.825000
 39
2
 62
0
  0
LINE
  8
0
  6
CONTINUOUS
 10
336.075000
 20
370.825000
 11
337.950000
 21
369.150000
 39
2
 62
0
  0
LINE
  8
0
  6
CONTINUOUS
 10
337.950000
 20
369.150000
 11
339.850000
 21
367.525000
 39
2
 62
0
  0
LINE
  8
0
  6
CONTINUOUS
 10
339.850000
 20
367.525000
 11
341.775000
 21
365.950000
 39
2
 62
0
  0
LINE
  8
0
  6
CONTINUOUS
 10
341.775000
 20
365.950000
 11
343.750000
 21
364.375000
 39
2
 62
0
  0
LINE
  8
0
  6
CONTINUOUS
 10
343.750000
 20
364.375000
 11
345.725000
 21
362.850000
 39
2
 62
0
  0
LINE
  8
0
  6
CONTINUOUS
 10
345.725000
 20
362.850000
 11
347.750000
 21
361.375000
 39
2
 62
0
  0
LINE
  8
0
  6
CONTINUOUS
 10
347.750000
 20
361.375000
 11
349.775000
 21
359.900000
 39
2
 62
0
  0
LINE
  8
0
  6
CONTINUOUS
 10
349.775000
 20
359.900000
 11
351.850000
 21
358.500000
 39
2
 62
0
  0
LINE
  8
0
  6
CONTINUOUS
 10
351.850000
 20
358.500000
 11
353.925000
 21
357.100000
 39
2
 62
0
  0
LINE
  8
0
  6
CONTINUOUS
 10
353.925000
 20
357.100000
 11
356.050000
 21
355.775000
 39
2
 62
0
  0
LINE
  8
0
  6
CONTINUOUS
 10
356.050000
 20
355.775000
 11
358.175000
 21
354.450000
 39
2
 62
0
  0
LINE
  8
0
  6
CONTINUOUS
 10
358.175000
 20
354.450000
 11
360.350000
 21
353.175000
 39
2
 62
0
  0
LINE
  8
0
  6
CONTINUOUS
 10
360.350000
 20
353.175000
 11
362.525000
 21
351.950000
 39
2
 62
0
  0
LINE
  8
0
  6
CONTINUOUS
 10
362.525000
 20
351.950000
 11
364.725000
 21
350.750000
 39
2
 62
0
  0
LINE
  8
0
  6
CONTINUOUS
 10
364.725000
 20
350.750000
 11
366.950000
 21
349.600000
 39
2
 62
0
  0
LINE
  8
0
  6
CONTINUOUS
 10
366.950000
 20
349.600000
 11
369.175000
 21
348.475000
 39
2
 62
0
  0
LINE
  8
0
  6
CONTINUOUS
 10
369.175000
 20
348.475000
 11
371.450000
 21
347.400000
 39
2
 62
0
  0
LINE
  8
0
  6
CONTINUOUS
 10
371.450000
 20
347.400000
 11
373.725000
 21
346.375000
 39
2
 62
0
  0
LINE
  8
0
  6
CONTINUOUS
 10
373.725000
 20
346.375000
 11
376.025000
 21
345.375000
 39
2
 62
0
  0
LINE
  8
0
  6
CONTINUOUS
 10
376.025000
 20
345.375000
 11
378.350000
 21
344.400000
 39
2
 62
0
  0
LINE
  8
0
  6
CONTINUOUS
 10
378.350000
 20
344.400000
 11
380.675000
 21
343.500000
 39
2
 62
0
  0
LINE
  8
0
  6
CONTINUOUS
 10
380.675000
 20
343.500000
 11
383.025000
 21
342.600000
 39
2
 62
0
  0
LINE
  8
0
  6
CONTINUOUS
 10
383.025000
 20
342.600000
 11
385.375000
 21
341.775000
 39
2
 62
0
  0
LINE
  8
0
  6
CONTINUOUS
 10
385.375000
 20
341.775000
 11
387.750000
 21
340.975000
 39
2
 62
0
  0
LINE
  8
0
  6
CONTINUOUS
 10
387.750000
 20
340.975000
 11
390.150000
 21
340.225000
 39
2
 62
0
  0
LINE
  8
0
  6
CONTINUOUS
 10
390.150000
 20
340.225000
 11
392.550000
 21
339.525000
 39
2
 62
0
  0
LINE
  8
0
  6
CONTINUOUS
 10
392.550000
 20
339.525000
 11
394.975000
 21
338.850000
 39
2
 62
0
  0
LINE
  8
0
  6
CONTINUOUS
 10
394.975000
 20
338.850000
 11
397.400000
 21
338.225000
 39
2
 62
0
  0
LINE
  8
0
  6
CONTINUOUS
 10
397.400000
 20
338.225000
 11
399.825000
 21
337.625000
 39
2
 62
0
  0
LINE
  8
0
  6
CONTINUOUS
 10
399.825000
 20
337.625000
 11
402.275000
 21
337.100000
 39
2
 62
0
  0
LINE
  8
0
  6
CONTINUOUS
 10
402.275000
 20
337.100000
 11
404.725000
 21
336.600000
 39
2
 62
0
  0
LINE
  8
0
  6
CONTINUOUS
 10
404.725000
 20
336.600000
 11
407.175000
 21
336.150000
 39
2
 62
0
  0
LINE
  8
0
  6
CONTINUOUS
 10
407.175000
 20
336.150000
 11
409.650000
 21
335.725000
 39
2
 62
0
  0
LINE
  8
0
  6
CONTINUOUS
 10
409.650000
 20
335.725000
 11
412.125000
 21
335.350000
 39
2
 62
0
  0
LINE
  8
0
  6
CONTINUOUS
 10
412.125000
 20
335.350000
 11
414.625000
 21
335.025000
 39
2
 62
0
  0
LINE
  8
0
  6
CONTINUOUS
 10
414.625000
 20
335.025000
 11
417.125000
 21
334.750000
 39
2
 62
0
  0
LINE
  8
0
  6
CONTINUOUS
 10
417.125000
 20
334.750000
 11
419.600000
 21
334.500000
 39
2
 62
0
  0
LINE
  8
0
  6
CONTINUOUS
 10
419.600000
 20
334.500000
 11
422.100000
 21
334.300000
 39
2
 62
0
  0
LINE
  8
0
  6
CONTINUOUS
 10
422.100000
 20
334.300000
 11
424.600000
 21
334.150000
 39
2
 62
0
  0
LINE
  8
0
  6
CONTINUOUS
 10
424.600000
 20
334.150000
 11
427.100000
 21
334.050000
 39
2
 62
0
  0
LINE
  8
0
  6
CONTINUOUS
 10
427.100000
 20
334.050000
 11
429.600000
 21
333.975000
 39
2
 62
0
  0
LINE
  8
0
  6
CONTINUOUS
 10
429.600000
 20
333.975000
 11
432.125000
 21
333.950000
 39
2
 62
0
  0
LINE
  8
0
  6
CONTINUOUS
 10
432.125000
 20
333.950000
 11
434.625000
 21
333.975000
 39
2
 62
0
  0
LINE
  8
0
  6
CONTINUOUS
 10
434.625000
 20
333.975000
 11
437.125000
 21
334.050000
 39
2
 62
0
  0
LINE
  8
0
  6
CONTINUOUS
 10
437.125000
 20
334.050000
 11
439.625000
 21
334.150000
 39
2
 62
0
  0
LINE
  8
0
  6
CONTINUOUS
 10
439.625000
 20
334.150000
 11
442.125000
 21
334.300000
 39
2
 62
0
  0
LINE
  8
0
  6
CONTINUOUS
 10
442.125000
 20
334.300000
 11
444.625000
 21
334.500000
 39
2
 62
0
  0
LINE
  8
0
  6
CONTINUOUS
 10
444.625000
 20
334.500000
 11
447.125000
 21
334.750000
 39
2
 62
0
  0
LINE
  8
0
  6
CONTINUOUS
 10
447.125000
 20
334.750000
 11
449.600000
 21
335.025000
 39
2
 62
0
  0
LINE
  8
0
  6
CONTINUOUS
 10
449.600000
 20
335.025000
 11
452.075000
 21
335.350000
 39
2
 62
0
  0
LINE
  8
0
  6
CONTINUOUS
 10
452.075000
 20
335.350000
 11
454.550000
 21
335.725000
 39
2
 62
0
  0
LINE
  8
0
  6
CONTINUOUS
 10
454.550000
 20
335.725000
 11
457.025000
 21
336.150000
 39
2
 62
0
  0
LINE
  8
0
  6
CONTINUOUS
 10
457.025000
 20
336.150000
 11
459.500000
 21
336.600000
 39
2
 62
0
  0
LINE
  8
0
  6
CONTINUOUS
 10
459.500000
 20
336.600000
 11
461.950000
 21
337.100000
 39
2
 62
0
  0
LINE
  8
0
  6
CONTINUOUS
 10
461.950000
 20
337.100000
 11
464.400000
 21
337.650000
 39
2
 62
0
  0
LINE
  8
0
  6
CONTINUOUS
 10
464.400000
 20
337.650000
 11
466.825000
 21
338.225000
 39
2
 62
0
  0
LINE
  8
0
  6
CONTINUOUS
 10
466.825000
 20
338.225000
 11
469.250000
 21
338.850000
 39
2
 62
0
  0
LINE
  8
0
  6
CONTINUOUS
 10
469.250000
 20
338.850000
 11
471.675000
 21
339.525000
 39
2
 62
0
  0
LINE
  8
0
  6
CONTINUOUS
 10
471.675000
 20
339.525000
 11
474.075000
 21
340.225000
 39
2
 62
0
  0
LINE
  8
0
  6
CONTINUOUS
 10
474.075000
 20
340.225000
 11
476.450000
 21
341.000000
 39
2
 62
0
  0
LINE
  8
0
  6
CONTINUOUS
 10
476.450000
 20
341.000000
 11
478.825000
 21
341.775000
 39
2
 62
0
  0
LINE
  8
0
  6
CONTINUOUS
 10
478.825000
 20
341.775000
 11
481.175000
 21
342.625000
 39
2
 62
0
  0
LINE
  8
0
  6
CONTINUOUS
 10
481.175000
 20
342.625000
 11
483.525000
 21
343.500000
 39
2
 62
0
  0
LINE
  8
0
  6
CONTINUOUS
 10
483.525000
 20
343.500000
 11
485.850000
 21
344.400000
 39
2
 62
0
  0
LINE
  8
0
  6
CONTINUOUS
 10
485.850000
 20
344.400000
 11
488.175000
 21
345.375000
 39
2
 62
0
  0
LINE
  8
0
  6
CONTINUOUS
 10
488.175000
 20
345.375000
 11
490.475000
 21
346.375000
 39
2
 62
0
  0
LINE
  8
0
  6
CONTINUOUS
 10
490.475000
 20
346.375000
 11
492.750000
 21
347.400000
 39
2
 62
0
  0
LINE
  8
0
  6
CONTINUOUS
 10
492.750000
 20
347.400000
 11
495.000000
 21
348.475000
 39
2
 62
0
  0
LINE
  8
0
  6
CONTINUOUS
 10
495.000000
 20
348.475000
 11
497.250000
 21
349.600000
 39
2
 62
0
  0
LINE
  8
0
  6
CONTINUOUS
 10
497.250000
 20
349.600000
 11
499.475000
 21
350.750000
 39
2
 62
0
  0
LINE
  8
0
  6
CONTINUOUS
 10
499.475000
 20
350.750000
 11
501.675000
 21
351.950000
 39
2
 62
0
  0
LINE
  8
0
  6
CONTINUOUS
 10
501.675000
 20
351.950000
 11
503.850000
 21
353.200000
 39
2
 62
0
  0
LINE
  8
0
  6
CONTINUOUS
 10
503.850000
 20
353.200000
 11
506.000000
 21
354.450000
 39
2
 62
0
  0
LINE
  8
0
  6
CONTINUOUS
 10
506.000000
 20
354.450000
 11
508.150000
 21
355.775000
 39
2
 62
0
  0
LINE
  8
0
  6
CONTINUOUS
 10
508.150000
 20
355.775000
 11
510.250000
 21
357.100000
 39
2
 62
0
  0
LINE
  8
0
  6
CONTINUOUS
 10
510.250000
 20
357.100000
 11
512.350000
 21
358.500000
 39
2
 62
0
  0
LINE
  8
0
  6
CONTINUOUS
 10
512.350000
 20
358.500000
 11
514.400000
 21
359.925000
 39
2
 62
0
  0
LINE
  8
0
  6
CONTINUOUS
 10
514.400000
 20
359.925000
 11
516.450000
 21
361.375000
 39
2
 62
0
  0
LINE
  8
0
  6
CONTINUOUS
 10
516.450000
 20
361.375000
 11
518.450000
 21
362.850000
 39
2
 62
0
  0
LINE
  8
0
  6
CONTINUOUS
 10
518.450000
 20
362.850000
 11
520.450000
 21
364.375000
 39
2
 62
0
  0
LINE
  8
0
  6
CONTINUOUS
 10
520.450000
 20
364.375000
 11
522.400000
 21
365.950000
 39
2
 62
0
  0
LINE
  8
0
  6
CONTINUOUS
 10
522.400000
 20
365.950000
 11
524.350000
 21
367.525000
 39
2
 62
0
  0
LINE
  8
0
  6
CONTINUOUS
 10
524.350000
 20
367.525000
 11
526.250000
 21
369.150000
 39
2
 62
0
  0
LINE
  8
0
  6
CONTINUOUS
 10
526.250000
 20
369.150000
 11
528.125000
 21
370.825000
 39
2
 62
0
  0
LINE
  8
0
  6
CONTINUOUS
 10
528.125000
 20
370.825000
 11
529.950000
 21
372.500000
 39
2
 62
0
  0
LINE
  8
0
  6
CONTINUOUS
 10
529.950000
 20
372.500000
 11
531.775000
 21
374.225000
 39
2
 62
0
  0
LINE
  8
0
  6
CONTINUOUS
 10
531.775000
 20
374.225000
 11
533.550000
 21
376.000000
 39
2
 62
0
  0
LINE
  8
0
  6
CONTINUOUS
 10
533.550000
 20
376.000000
 11
535.025000
 21
377.450000
 39
2
 62
0
  0
LINE
  8
0
  6
CONTINUOUS
 10
535.025000
 20
377.450000
 11
536.500000
 21
378.925000
 39
2
 62
0
  0
LINE
  8
0
  6
CONTINUOUS
 10
536.500000
 20
378.925000
 11
537.975000
 21
380.400000
 39
2
 62
0
  0
LINE
  8
0
  6
CONTINUOUS
 10
537.975000
 20
380.400000
 11
539.450000
 21
381.850000
 39
2
 62
0
  0
LINE
  8
0
  6
CONTINUOUS
 10
539.450000
 20
381.850000
 11
540.900000
 21
383.325000
 39
2
 62
0
  0
LINE
  8
0
  6
CONTINUOUS
 10
540.900000
 20
383.325000
 11
542.375000
 21
384.800000
 39
2
 62
0
  0
LINE
  8
0
  6
CONTINUOUS
 10
542.375000
 20
384.800000
 11
543.850000
 21
386.275000
 39
2
 62
0
  0
LINE
  8
0
  6
CONTINUOUS
 10
543.850000
 20
386.275000
 11
545.300000
 21
387.725000
 39
2
 62
0
  0
LINE
  8
0
  6
CONTINUOUS
 10
545.300000
 20
387.725000
 11
546.775000
 21
389.200000
 39
2
 62
0
  0
LINE
  8
0
  6
CONTINUOUS
 10
546.775000
 20
389.200000
 11
548.250000
 21
390.675000
 39
2
 62
0
  0
LINE
  8
0
  6
CONTINUOUS
 10
548.250000
 20
390.675000
 11
549.725000
 21
392.125000
 39
2
 62
0
  0
LINE
  8
0
  6
CONTINUOUS
 10
549.725000
 20
392.125000
 11
551.175000
 21
393.600000
 39
2
 62
0
  0
LINE
  8
0
  6
CONTINUOUS
 10
551.175000
 20
393.600000
 11
552.650000
 21
395.075000
 39
2
 62
0
  0
LINE
  8
0
  6
CONTINUOUS
 10
552.650000
 20
395.075000
 11
554.125000
 21
396.550000
 39
2
 62
0
  0
LINE
  8
0
  6
CONTINUOUS
 10
554.125000
 20
396.550000
 11
555.575000
 21
398.025000
 39
2
 62
0
  0
LINE
  8
0
  6
CONTINUOUS
 10
555.575000
 20
398.025000
 11
557.050000
 21
399.475000
 39
2
 62
0
  0
LINE
  8
0
  6
CONTINUOUS
 10
557.050000
 20
399.475000
 11
558.525000
 21
400.950000
 39
2
 62
0
  0
LINE
  8
0
  6
CONTINUOUS
 10
558.525000
 20
400.950000
 11
560.000000
 21
402.425000
 39
2
 62
0
  0
LINE
  8
0
  6
CONTINUOUS
 10
560.000000
 20
402.425000
 11
561.475000
 21
403.875000
 39
2
 62
0
  0
LINE
  8
0
  6
CONTINUOUS
 10
561.475000
 20
403.875000
 11
562.925000
 21
405.350000
 39
2
 62
0
  0
LINE
  8
0
  6
CONTINUOUS
 10
562.925000
 20
405.350000
 11
564.400000
 21
406.825000
 39
2
 62
0
  0
LINE
  8
0
  6
CONTINUOUS
 10
5.724000
 20
371.765000
 11
4.648000
 21
372.840000
 39
2
 62
0
  0
LINE
  8
0
  6
CONTINUOUS
 10
4.648000
 20
372.840000
 11
3.573000
 21
373.916000
 39
2
 62
0
  0
LINE
  8
0
  6
CONTINUOUS
 10
3.573000
 20
373.916000
 11
2.491000
 21
374.991000
 39
2
 62
0
  0
LINE
  8
0
  6
CONTINUOUS
 10
2.491000
 20
374.991000
 11
1.416000
 21
376.066000
 39
2
 62
0
  0
LINE
  8
0
  6
CONTINUOUS
 10
1.416000
 20
376.066000
 11
0.352000
 21
377.130000
 39
2
 62
0
  0
LINE
  8
0
  6
CONTINUOUS
 10
0.352000
 20
377.130000
 11
-0.723400
 21
378.212000
 39
2
 62
0
  0
LINE
  8
0
  6
CONTINUOUS
 10
-0.723400
 20
378.212000
 11
-1.798800
 21
379.287000
 39
2
 62
0
  0
LINE
  8
0
  6
CONTINUOUS
 10
-1.798800
 20
379.287000
 11
-2.874300
 21
380.363000
 39
2
 62
0
  0
LINE
  8
0
  6
CONTINUOUS
 10
-2.874300
 20
380.363000
 11
-3.949700
 21
381.438000
 39
2
 62
0
  0
LINE
  8
0
  6
CONTINUOUS
 10
-3.949700
 20
381.438000
 11
-5.025100
 21
382.513000
 39
2
 62
0
  0
LINE
  8
0
  6
CONTINUOUS
 10
-5.025100
 20
382.513000
 11
-6.100600
 21
383.589000
 39
2
 62
0
  0
LINE
  8
0
  6
CONTINUOUS
 10
-6.100600
 20
383.589000
 11
-7.176000
 21
384.664000
 39
2
 62
0
  0
LINE
  8
0
  6
CONTINUOUS
 10
-7.176000
 20
384.664000
 11
-8.251500
 21
385.740000
 39
2
 62
0
  0
LINE
  8
0
  6
CONTINUOUS
 10
-8.251500
 20
385.740000
 11
-9.326900
 21
386.815000
 39
2
 62
0
  0
LINE
  8
0
  6
CONTINUOUS
 10
-9.326900
 20
386.815000
 11
-10.402300
 21
387.891000
 39
2
 62
0
  0
LINE
  8
0
  6
CONTINUOUS
 10
-10.402300
 20
387.891000
 11
-11.477800
 21
388.966000
 39
2
 62
0
  0
LINE
  8
0
  6
CONTINUOUS
 10
-11.477800
 20
388.966000
 11
-12.553200
 21
390.042000
 39
2
 62
0
  0
LINE
  8
0
  6
CONTINUOUS
 10
-12.553200
 20
390.042000
 11
-13.628700
 21
391.117000
 39
2
 62
0
  0
LINE
  8
0
  6
CONTINUOUS
 10
-13.628700
 20
391.117000
 11
-14.704100
 21
392.192000
 39
2
 62
0
  0
LINE
  8
0
  6
CONTINUOUS
 10
-14.704100
 20
392.192000
 11
-15.779500
 21
393.268000
 39
2
 62
0
  0
LINE
  8
0
  6
CONTINUOUS
 10
-15.779500
 20
393.268000
 11
-16.855000
 21
394.343000
 39
2
 62
0
  0
LINE
  8
0
  6
CONTINUOUS
 10
-16.855000
 20
394.343000
 11
-17.930400
 21
395.419000
 39
2
 62
0
  0
LINE
  8
0
  6
CONTINUOUS
 10
-17.930400
 20
395.419000
 11
-19.005900
 21
396.494000
 39
2
 62
0
  0
LINE
  8
0
  6
CONTINUOUS
 10
-19.005900
 20
396.494000
 11
-20.081300
 21
397.570000
 39
2
 62
0
  0
LINE
  8
0
  6
CONTINUOUS
 10
-20.081300
 20
397.570000
 11
-21.162800
 21
398.645000
 39
2
 62
0
  0
LINE
  8
0
  6
CONTINUOUS
 10
-21.162800
 20
398.645000
 11
-22.226600
 21
399.709000
 39
2
 62
0
  0
LINE
  8
0
  6
CONTINUOUS
 10
-22.226600
 20
399.709000
 11
-23.302000
 21
400.784000
 39
2
 62
0
  0
LINE
  8
0
  6
CONTINUOUS
 10
-23.302000
 20
400.784000
 11
-24.377400
 21
401.866000
 39
2
 62
0
  0
LINE
  8
0
  6
CONTINUOUS
 10
-24.377400
 20
401.866000
 11
-25.452900
 21
402.941000
 39
2
 62
0
  0
LINE
  8
0
  6
CONTINUOUS
 10
-25.452900
 20
402.941000
 11
-26.528300
 21
404.017000
 39
2
 62
0
  0
LINE
  8
0
  6
CONTINUOUS
 10
596.656000
 20
374.570000
 11
595.580000
 21
375.634000
 39
2
 62
0
  0
LINE
  8
0
  6
CONTINUOUS
 10
595.580000
 20
375.634000
 11
594.505000
 21
376.709000
 39
2
 62
0
  0
LINE
  8
0
  6
CONTINUOUS
 10
594.505000
 20
376.709000
 11
593.429000
 21
377.784000
 39
2
 62
0
  0
LINE
  8
0
  6
CONTINUOUS
 10
593.429000
 20
377.784000
 11
592.354000
 21
378.860000
 39
2
 62
0
  0
LINE
  8
0
  6
CONTINUOUS
 10
592.354000
 20
378.860000
 11
591.279000
 21
379.935000
 39
2
 62
0
  0
LINE
  8
0
  6
CONTINUOUS
 10
591.279000
 20
379.935000
 11
590.203000
 21
381.011000
 39
2
 62
0
  0
LINE
  8
0
  6
CONTINUOUS
 10
590.203000
 20
381.011000
 11
589.139000
 21
382.086000
 39
2
 62
0
  0
LINE
  8
0
  6
CONTINUOUS
 10
589.139000
 20
382.086000
 11
588.058000
 21
383.162000
 39
2
 62
0
  0
LINE
  8
0
  6
CONTINUOUS
 10
588.058000
 20
383.162000
 11
586.982000
 21
384.237000
 39
2
 62
0
  0
LINE
  8
0
  6
CONTINUOUS
 10
586.982000
 20
384.237000
 11
585.907000
 21
385.312000
 39
2
 62
0
  0
LINE
  8
0
  6
CONTINUOUS
 10
585.907000
 20
385.312000
 11
584.832000
 21
386.388000
 39
2
 62
0
  0
LINE
  8
0
  6
CONTINUOUS
 10
584.832000
 20
386.388000
 11
583.756000
 21
387.463000
 39
2
 62
0
  0
LINE
  8
0
  6
CONTINUOUS
 10
583.756000
 20
387.463000
 11
582.681000
 21
388.539000
 39
2
 62
0
  0
LINE
  8
0
  6
CONTINUOUS
 10
582.681000
 20
388.539000
 11
581.605000
 21
389.614000
 39
2
 62
0
  0
LINE
  8
0
  6
CONTINUOUS
 10
581.605000
 20
389.614000
 11
580.530000
 21
390.690000
 39
2
 62
0
  0
LINE
  8
0
  6
CONTINUOUS
 10
580.530000
 20
390.690000
 11
579.454000
 21
391.765000
 39
2
 62
0
  0
LINE
  8
0
  6
CONTINUOUS
 10
579.454000
 20
391.765000
 11
578.379000
 21
392.841000
 39
2
 62
0
  0
LINE
  8
0
  6
CONTINUOUS
 10
578.379000
 20
392.841000
 11
577.303000
 21
393.916000
 39
2
 62
0
  0
LINE
  8
0
  6
CONTINUOUS
 10
577.303000
 20
393.916000
 11
576.228000
 21
394.991000
 39
2
 62
0
  0
LINE
  8
0
  6
CONTINUOUS
 10
576.228000
 20
394.991000
 11
575.153000
 21
396.073000
 39
2
 62
0
  0
LINE
  8
0
  6
CONTINUOUS
 10
575.153000
 20
396.073000
 11
574.077000
 21
397.148000
 39
2
 62
0
  0
LINE
  8
0
  6
CONTINUOUS
 10
574.077000
 20
397.148000
 11
573.002000
 21
398.212000
 39
2
 62
0
  0
LINE
  8
0
  6
CONTINUOUS
 10
573.002000
 20
398.212000
 11
571.926000
 21
399.288000
 39
2
 62
0
  0
LINE
  8
0
  6
CONTINUOUS
 10
571.926000
 20
399.288000
 11
570.851000
 21
400.363000
 39
2
 62
0
  0
LINE
  8
0
  6
CONTINUOUS
 10
570.851000
 20
400.363000
 11
569.775000
 21
401.438000
 39
2
 62
0
  0
LINE
  8
0
  6
CONTINUOUS
 10
569.775000
 20
401.438000
 11
568.700000
 21
402.514000
 39
2
 62
0
  0
LINE
  8
0
  6
CONTINUOUS
 10
568.700000
 20
402.514000
 11
567.625000
 21
403.589000
 39
2
 62
0
  0
LINE
  8
0
  6
CONTINUOUS
 10
567.625000
 20
403.589000
 11
566.561000
 21
404.665000
 39
2
 62
0
  0
LINE
  8
0
  6
CONTINUOUS
 10
566.561000
 20
404.665000
 11
565.479000
 21
405.740000
 39
2
 62
0
  0
LINE
  8
0
  6
CONTINUOUS
 10
565.479000
 20
405.740000
 11
564.404000
 21
406.816000
 39
2
 62
0
  0
ENDSEC
  0
EOF
