  0
SECTION
  2
HEADER
  9
$LIMMIN
 10
-42.709699
 20
0.000000
  9
$LIMMAX
 10
621.713794
 20
414.020099
  9
$EXTMIN
 10
-42.709699
 20
0.000000
  9
$EXTMAX
 10
621.713794
 20
414.020099
  9
$ANGBASE
 50
0.000000
  9
$ANGDIR
 70
0
  9
$INSUNITS
 70
0
  9
$DIMALT
 70
6
  9
$DIMLUNIT
 70
2
  9
$DIMASZ
 40
3.000000
  9
$DIMTXT
 40
5.000000
  9
$DIMRND
 40
0.001000
  9
$DIMEXE
 40
2.000000
  9
$DIMEXO
 40
2.000000
  9
$DIMAUNIT
 70
0
  9
$DIMADEC
 70
2
  9
$GRIDUNIT
 10
0.002500
 20
0.002500
  9
$PLIMMIN
 10
0.000000
 20
-85.000000
  9
$PLIMMAX
 10
279.400000
 20
130.900000
  9
$PSVPSCALE
 40
0.850000
  0
ENDSEC
  0
SECTION
  2
TABLES
  0
TABLE
  2
LTYPE
 70
     1
  0
LTYPE
  2
CONTINUOUS
 70
    64
  3
Ausgez
 72
    65
 73
  0
 40
0.000000
  0
ENDTAB
  0
TABLE
  2
LAYER
 70
     1
  0
LAYER
  2
default
 70
    64
 39
0
 62
0
  6
CONTINUOUS
  0
LAYER
  2
0
 70
    64
 39
2
 62
0
  6
CONTINUOUS
  0
LAYER
  2
dims
 70
    64
 39
0
 62
0
  6
CONTINUOUS
  0
ENDTAB
  0
ENDSEC
  0
SECTION
  2
BLOCKS
  0
ENDSEC
  0
SECTION
  2
ENTITIES
  0
LINE
  8
dims
  6
CONTINUOUS
 10
565.837607
 20
243.712393
 11
432.048189
 21
377.501811
 39
0
 62
0
  0
LINE
  8
dims
  6
CONTINUOUS
 10
432.048189
 20
377.501811
 11
298.375000
 21
243.725000
 39
0
 62
0
  0
LINE
  8
dims
  6
CONTINUOUS
 10
4.287500
 20
334.862500
 11
138.064316
 21
201.085684
 39
0
 62
0
  0
LINE
  8
dims
  6
CONTINUOUS
 10
432.049559
 20
370.429373
 11
428.512655
 21
373.966277
 39
0
 62
0
  0
LINE
  8
dims
  6
CONTINUOUS
 10
435.585092
 20
373.967648
 11
432.049559
 21
370.429373
 39
0
 62
0
  0
DIMENSION
  8
dims
  6
CONTINUOUS
  1
;;
 13
43.244148
 23
365.319032
 14
35.426130
 24
378.860238
 10
-6.926406
 20
346.076406
 15
-7.088000
 25
346.238000
 16
35.426130
 26
378.860238
 70
2
 39
0
 62
0
  0
DIMENSION
  8
dims
  6
CONTINUOUS
  1
;;
 13
88.977837
 23
384.278918
 14
84.905604
 24
399.476697
 10
42.801213
 20
366.086218
 15
35.369571
 25
378.958200
 16
84.905604
 26
399.476697
 70
2
 39
0
 62
0
  0
DIMENSION
  8
dims
  6
CONTINUOUS
  1
;;
 13
138.064316
 23
390.510118
 14
138.064316
 24
406.206781
 10
88.657423
 20
385.474718
 15
84.975070
 25
399.217450
 16
138.064316
 26
406.206781
 70
2
 39
0
 62
0
  0
LINE
  8
dims
  6
CONTINUOUS
 10
134.527413
 20
204.619848
 11
138.062946
 21
208.158122
 39
0
 62
0
  0
LINE
  8
dims
  6
CONTINUOUS
 10
138.062946
 20
208.158122
 11
141.599850
 21
204.621218
 39
0
 62
0
  0
LINE
  8
0
  6
CONTINUOUS
 10
5.725000
 20
271.775000
 11
7.200000
 21
273.225000
 39
2
 62
0
  0
LINE
  8
0
  6
CONTINUOUS
 10
7.200000
 20
273.225000
 11
8.650000
 21
274.700000
 39
2
 62
0
  0
LINE
  8
0
  6
CONTINUOUS
 10
8.650000
 20
274.700000
 11
10.125000
 21
276.175000
 39
2
 62
0
  0
LINE
  8
0
  6
CONTINUOUS
 10
10.125000
 20
276.175000
 11
11.600000
 21
277.625000
 39
2
 62
0
  0
LINE
  8
0
  6
CONTINUOUS
 10
11.600000
 20
277.625000
 11
13.075000
 21
279.100000
 39
2
 62
0
  0
LINE
  8
0
  6
CONTINUOUS
 10
13.075000
 20
279.100000
 11
14.525000
 21
280.575000
 39
2
 62
0
  0
LINE
  8
0
  6
CONTINUOUS
 10
14.525000
 20
280.575000
 11
16.000000
 21
282.050000
 39
2
 62
0
  0
LINE
  8
0
  6
CONTINUOUS
 10
16.000000
 20
282.050000
 11
17.475000
 21
283.500000
 39
2
 62
0
  0
LINE
  8
0
  6
CONTINUOUS
 10
17.475000
 20
283.500000
 11
18.950000
 21
284.975000
 39
2
 62
0
  0
LINE
  8
0
  6
CONTINUOUS
 10
18.950000
 20
284.975000
 11
20.400000
 21
286.450000
 39
2
 62
0
  0
LINE
  8
0
  6
CONTINUOUS
 10
20.400000
 20
286.450000
 11
21.875000
 21
287.900000
 39
2
 62
0
  0
LINE
  8
0
  6
CONTINUOUS
 10
21.875000
 20
287.900000
 11
23.350000
 21
289.375000
 39
2
 62
0
  0
LINE
  8
0
  6
CONTINUOUS
 10
23.350000
 20
289.375000
 11
24.800000
 21
290.850000
 39
2
 62
0
  0
LINE
  8
0
  6
CONTINUOUS
 10
24.800000
 20
290.850000
 11
26.275000
 21
292.325000
 39
2
 62
0
  0
LINE
  8
0
  6
CONTINUOUS
 10
26.275000
 20
292.325000
 11
27.750000
 21
293.800000
 39
2
 62
0
  0
LINE
  8
0
  6
CONTINUOUS
 10
27.750000
 20
293.800000
 11
29.225000
 21
295.250000
 39
2
 62
0
  0
LINE
  8
0
  6
CONTINUOUS
 10
29.225000
 20
295.250000
 11
30.675000
 21
296.725000
 39
2
 62
0
  0
LINE
  8
0
  6
CONTINUOUS
 10
30.675000
 20
296.725000
 11
32.150000
 21
298.200000
 39
2
 62
0
  0
LINE
  8
0
  6
CONTINUOUS
 10
32.150000
 20
298.200000
 11
33.625000
 21
299.650000
 39
2
 62
0
  0
LINE
  8
0
  6
CONTINUOUS
 10
33.625000
 20
299.650000
 11
35.100000
 21
301.125000
 39
2
 62
0
  0
LINE
  8
0
  6
CONTINUOUS
 10
35.100000
 20
301.125000
 11
36.550000
 21
302.600000
 39
2
 62
0
  0
LINE
  8
0
  6
CONTINUOUS
 10
36.550000
 20
302.600000
 11
38.350000
 21
304.350000
 39
2
 62
0
  0
LINE
  8
0
  6
CONTINUOUS
 10
38.350000
 20
304.350000
 11
40.150000
 21
306.075000
 39
2
 62
0
  0
LINE
  8
0
  6
CONTINUOUS
 10
40.150000
 20
306.075000
 11
42.000000
 21
307.775000
 39
2
 62
0
  0
LINE
  8
0
  6
CONTINUOUS
 10
42.000000
 20
307.775000
 11
43.875000
 21
309.425000
 39
2
 62
0
  0
LINE
  8
0
  6
CONTINUOUS
 10
43.875000
 20
309.425000
 11
45.775000
 21
311.050000
 39
2
 62
0
  0
LINE
  8
0
  6
CONTINUOUS
 10
45.775000
 20
311.050000
 11
47.725000
 21
312.650000
 39
2
 62
0
  0
LINE
  8
0
  6
CONTINUOUS
 10
47.725000
 20
312.650000
 11
49.675000
 21
314.200000
 39
2
 62
0
  0
LINE
  8
0
  6
CONTINUOUS
 10
49.675000
 20
314.200000
 11
51.675000
 21
315.725000
 39
2
 62
0
  0
LINE
  8
0
  6
CONTINUOUS
 10
51.675000
 20
315.725000
 11
53.675000
 21
317.225000
 39
2
 62
0
  0
LINE
  8
0
  6
CONTINUOUS
 10
53.675000
 20
317.225000
 11
55.725000
 21
318.675000
 39
2
 62
0
  0
LINE
  8
0
  6
CONTINUOUS
 10
55.725000
 20
318.675000
 11
57.775000
 21
320.100000
 39
2
 62
0
  0
LINE
  8
0
  6
CONTINUOUS
 10
57.775000
 20
320.100000
 11
59.875000
 21
321.475000
 39
2
 62
0
  0
LINE
  8
0
  6
CONTINUOUS
 10
59.875000
 20
321.475000
 11
61.975000
 21
322.825000
 39
2
 62
0
  0
LINE
  8
0
  6
CONTINUOUS
 10
61.975000
 20
322.825000
 11
64.125000
 21
324.125000
 39
2
 62
0
  0
LINE
  8
0
  6
CONTINUOUS
 10
64.125000
 20
324.125000
 11
66.275000
 21
325.400000
 39
2
 62
0
  0
LINE
  8
0
  6
CONTINUOUS
 10
66.275000
 20
325.400000
 11
68.450000
 21
326.625000
 39
2
 62
0
  0
LINE
  8
0
  6
CONTINUOUS
 10
68.450000
 20
326.625000
 11
70.650000
 21
327.825000
 39
2
 62
0
  0
LINE
  8
0
  6
CONTINUOUS
 10
70.650000
 20
327.825000
 11
72.875000
 21
328.975000
 39
2
 62
0
  0
LINE
  8
0
  6
CONTINUOUS
 10
72.875000
 20
328.975000
 11
75.125000
 21
330.100000
 39
2
 62
0
  0
LINE
  8
0
  6
CONTINUOUS
 10
75.125000
 20
330.100000
 11
77.375000
 21
331.175000
 39
2
 62
0
  0
LINE
  8
0
  6
CONTINUOUS
 10
77.375000
 20
331.175000
 11
79.675000
 21
332.225000
 39
2
 62
0
  0
LINE
  8
0
  6
CONTINUOUS
 10
79.675000
 20
332.225000
 11
81.975000
 21
333.225000
 39
2
 62
0
  0
LINE
  8
0
  6
CONTINUOUS
 10
81.975000
 20
333.225000
 11
84.275000
 21
334.175000
 39
2
 62
0
  0
LINE
  8
0
  6
CONTINUOUS
 10
84.275000
 20
334.175000
 11
86.600000
 21
335.100000
 39
2
 62
0
  0
LINE
  8
0
  6
CONTINUOUS
 10
86.600000
 20
335.100000
 11
88.950000
 21
335.975000
 39
2
 62
0
  0
LINE
  8
0
  6
CONTINUOUS
 10
88.950000
 20
335.975000
 11
91.300000
 21
336.800000
 39
2
 62
0
  0
LINE
  8
0
  6
CONTINUOUS
 10
91.300000
 20
336.800000
 11
93.675000
 21
337.600000
 39
2
 62
0
  0
LINE
  8
0
  6
CONTINUOUS
 10
93.675000
 20
337.600000
 11
96.075000
 21
338.350000
 39
2
 62
0
  0
LINE
  8
0
  6
CONTINUOUS
 10
96.075000
 20
338.350000
 11
98.475000
 21
339.075000
 39
2
 62
0
  0
LINE
  8
0
  6
CONTINUOUS
 10
98.475000
 20
339.075000
 11
100.900000
 21
339.750000
 39
2
 62
0
  0
LINE
  8
0
  6
CONTINUOUS
 10
100.900000
 20
339.750000
 11
103.325000
 21
340.375000
 39
2
 62
0
  0
LINE
  8
0
  6
CONTINUOUS
 10
103.325000
 20
340.375000
 11
105.750000
 21
340.950000
 39
2
 62
0
  0
LINE
  8
0
  6
CONTINUOUS
 10
105.750000
 20
340.950000
 11
108.200000
 21
341.500000
 39
2
 62
0
  0
LINE
  8
0
  6
CONTINUOUS
 10
108.200000
 20
341.500000
 11
110.650000
 21
342.000000
 39
2
 62
0
  0
LINE
  8
0
  6
CONTINUOUS
 10
110.650000
 20
342.000000
 11
113.125000
 21
342.450000
 39
2
 62
0
  0
LINE
  8
0
  6
CONTINUOUS
 10
113.125000
 20
342.450000
 11
115.575000
 21
342.875000
 39
2
 62
0
  0
LINE
  8
0
  6
CONTINUOUS
 10
115.575000
 20
342.875000
 11
118.075000
 21
343.225000
 39
2
 62
0
  0
LINE
  8
0
  6
CONTINUOUS
 10
118.075000
 20
343.225000
 11
120.550000
 21
343.550000
 39
2
 62
0
  0
LINE
  8
0
  6
CONTINUOUS
 10
120.550000
 20
343.550000
 11
123.050000
 21
343.850000
 39
2
 62
0
  0
LINE
  8
0
  6
CONTINUOUS
 10
123.050000
 20
343.850000
 11
125.550000
 21
344.075000
 39
2
 62
0
  0
LINE
  8
0
  6
CONTINUOUS
 10
125.550000
 20
344.075000
 11
128.025000
 21
344.275000
 39
2
 62
0
  0
LINE
  8
0
  6
CONTINUOUS
 10
128.025000
 20
344.275000
 11
130.525000
 21
344.425000
 39
2
 62
0
  0
LINE
  8
0
  6
CONTINUOUS
 10
130.525000
 20
344.425000
 11
133.025000
 21
344.550000
 39
2
 62
0
  0
LINE
  8
0
  6
CONTINUOUS
 10
133.025000
 20
344.550000
 11
135.525000
 21
344.600000
 39
2
 62
0
  0
LINE
  8
0
  6
CONTINUOUS
 10
135.525000
 20
344.600000
 11
138.050000
 21
344.625000
 39
2
 62
0
  0
LINE
  8
0
  6
CONTINUOUS
 10
138.050000
 20
344.625000
 11
140.550000
 21
344.600000
 39
2
 62
0
  0
LINE
  8
0
  6
CONTINUOUS
 10
140.550000
 20
344.600000
 11
143.050000
 21
344.550000
 39
2
 62
0
  0
LINE
  8
0
  6
CONTINUOUS
 10
143.050000
 20
344.550000
 11
145.550000
 21
344.425000
 39
2
 62
0
  0
LINE
  8
0
  6
CONTINUOUS
 10
145.550000
 20
344.425000
 11
148.050000
 21
344.275000
 39
2
 62
0
  0
LINE
  8
0
  6
CONTINUOUS
 10
148.050000
 20
344.275000
 11
150.550000
 21
344.075000
 39
2
 62
0
  0
LINE
  8
0
  6
CONTINUOUS
 10
150.550000
 20
344.075000
 11
153.050000
 21
343.850000
 39
2
 62
0
  0
LINE
  8
0
  6
CONTINUOUS
 10
153.050000
 20
343.850000
 11
155.550000
 21
343.550000
 39
2
 62
0
  0
LINE
  8
0
  6
CONTINUOUS
 10
155.550000
 20
343.550000
 11
158.025000
 21
343.225000
 39
2
 62
0
  0
LINE
  8
0
  6
CONTINUOUS
 10
158.025000
 20
343.225000
 11
160.500000
 21
342.850000
 39
2
 62
0
  0
LINE
  8
0
  6
CONTINUOUS
 10
160.500000
 20
342.850000
 11
162.950000
 21
342.450000
 39
2
 62
0
  0
LINE
  8
0
  6
CONTINUOUS
 10
162.950000
 20
342.450000
 11
165.425000
 21
341.975000
 39
2
 62
0
  0
LINE
  8
0
  6
CONTINUOUS
 10
165.425000
 20
341.975000
 11
167.875000
 21
341.475000
 39
2
 62
0
  0
LINE
  8
0
  6
CONTINUOUS
 10
167.875000
 20
341.475000
 11
170.325000
 21
340.950000
 39
2
 62
0
  0
LINE
  8
0
  6
CONTINUOUS
 10
170.325000
 20
340.950000
 11
172.750000
 21
340.350000
 39
2
 62
0
  0
LINE
  8
0
  6
CONTINUOUS
 10
172.750000
 20
340.350000
 11
175.175000
 21
339.725000
 39
2
 62
0
  0
LINE
  8
0
  6
CONTINUOUS
 10
175.175000
 20
339.725000
 11
177.600000
 21
339.075000
 39
2
 62
0
  0
LINE
  8
0
  6
CONTINUOUS
 10
177.600000
 20
339.075000
 11
180.000000
 21
338.350000
 39
2
 62
0
  0
LINE
  8
0
  6
CONTINUOUS
 10
180.000000
 20
338.350000
 11
182.375000
 21
337.600000
 39
2
 62
0
  0
LINE
  8
0
  6
CONTINUOUS
 10
182.375000
 20
337.600000
 11
184.750000
 21
336.800000
 39
2
 62
0
  0
LINE
  8
0
  6
CONTINUOUS
 10
184.750000
 20
336.800000
 11
187.125000
 21
335.975000
 39
2
 62
0
  0
LINE
  8
0
  6
CONTINUOUS
 10
187.125000
 20
335.975000
 11
189.450000
 21
335.100000
 39
2
 62
0
  0
LINE
  8
0
  6
CONTINUOUS
 10
189.450000
 20
335.100000
 11
191.800000
 21
334.175000
 39
2
 62
0
  0
LINE
  8
0
  6
CONTINUOUS
 10
191.800000
 20
334.175000
 11
194.100000
 21
333.225000
 39
2
 62
0
  0
LINE
  8
0
  6
CONTINUOUS
 10
194.100000
 20
333.225000
 11
196.400000
 21
332.225000
 39
2
 62
0
  0
LINE
  8
0
  6
CONTINUOUS
 10
196.400000
 20
332.225000
 11
198.675000
 21
331.175000
 39
2
 62
0
  0
LINE
  8
0
  6
CONTINUOUS
 10
198.675000
 20
331.175000
 11
200.950000
 21
330.100000
 39
2
 62
0
  0
LINE
  8
0
  6
CONTINUOUS
 10
200.950000
 20
330.100000
 11
203.175000
 21
328.975000
 39
2
 62
0
  0
LINE
  8
0
  6
CONTINUOUS
 10
203.175000
 20
328.975000
 11
205.400000
 21
327.825000
 39
2
 62
0
  0
LINE
  8
0
  6
CONTINUOUS
 10
205.400000
 20
327.825000
 11
207.600000
 21
326.625000
 39
2
 62
0
  0
LINE
  8
0
  6
CONTINUOUS
 10
207.600000
 20
326.625000
 11
209.775000
 21
325.400000
 39
2
 62
0
  0
LINE
  8
0
  6
CONTINUOUS
 10
209.775000
 20
325.400000
 11
211.950000
 21
324.125000
 39
2
 62
0
  0
LINE
  8
0
  6
CONTINUOUS
 10
211.950000
 20
324.125000
 11
214.075000
 21
322.825000
 39
2
 62
0
  0
LINE
  8
0
  6
CONTINUOUS
 10
214.075000
 20
322.825000
 11
216.175000
 21
321.475000
 39
2
 62
0
  0
LINE
  8
0
  6
CONTINUOUS
 10
216.175000
 20
321.475000
 11
218.275000
 21
320.100000
 39
2
 62
0
  0
LINE
  8
0
  6
CONTINUOUS
 10
218.275000
 20
320.100000
 11
220.350000
 21
318.675000
 39
2
 62
0
  0
LINE
  8
0
  6
CONTINUOUS
 10
220.350000
 20
318.675000
 11
222.375000
 21
317.225000
 39
2
 62
0
  0
LINE
  8
0
  6
CONTINUOUS
 10
222.375000
 20
317.225000
 11
224.400000
 21
315.725000
 39
2
 62
0
  0
LINE
  8
0
  6
CONTINUOUS
 10
224.400000
 20
315.725000
 11
226.375000
 21
314.200000
 39
2
 62
0
  0
LINE
  8
0
  6
CONTINUOUS
 10
226.375000
 20
314.200000
 11
228.350000
 21
312.650000
 39
2
 62
0
  0
LINE
  8
0
  6
CONTINUOUS
 10
228.350000
 20
312.650000
 11
230.275000
 21
311.050000
 39
2
 62
0
  0
LINE
  8
0
  6
CONTINUOUS
 10
230.275000
 20
311.050000
 11
232.175000
 21
309.425000
 39
2
 62
0
  0
LINE
  8
0
  6
CONTINUOUS
 10
232.175000
 20
309.425000
 11
234.050000
 21
307.775000
 39
2
 62
0
  0
LINE
  8
0
  6
CONTINUOUS
 10
234.050000
 20
307.775000
 11
235.900000
 21
306.075000
 39
2
 62
0
  0
LINE
  8
0
  6
CONTINUOUS
 10
235.900000
 20
306.075000
 11
237.700000
 21
304.350000
 39
2
 62
0
  0
LINE
  8
0
  6
CONTINUOUS
 10
237.700000
 20
304.350000
 11
239.500000
 21
302.600000
 39
2
 62
0
  0
LINE
  8
0
  6
CONTINUOUS
 10
239.500000
 20
302.600000
 11
241.450000
 21
300.625000
 39
2
 62
0
  0
LINE
  8
0
  6
CONTINUOUS
 10
241.450000
 20
300.625000
 11
243.425000
 21
298.675000
 39
2
 62
0
  0
LINE
  8
0
  6
CONTINUOUS
 10
243.425000
 20
298.675000
 11
245.375000
 21
296.700000
 39
2
 62
0
  0
LINE
  8
0
  6
CONTINUOUS
 10
245.375000
 20
296.700000
 11
247.350000
 21
294.750000
 39
2
 62
0
  0
LINE
  8
0
  6
CONTINUOUS
 10
247.350000
 20
294.750000
 11
249.300000
 21
292.775000
 39
2
 62
0
  0
LINE
  8
0
  6
CONTINUOUS
 10
249.300000
 20
292.775000
 11
251.275000
 21
290.825000
 39
2
 62
0
  0
LINE
  8
0
  6
CONTINUOUS
 10
251.275000
 20
290.825000
 11
253.225000
 21
288.850000
 39
2
 62
0
  0
LINE
  8
0
  6
CONTINUOUS
 10
253.225000
 20
288.850000
 11
255.200000
 21
286.900000
 39
2
 62
0
  0
LINE
  8
0
  6
CONTINUOUS
 10
255.200000
 20
286.900000
 11
257.150000
 21
284.925000
 39
2
 62
0
  0
LINE
  8
0
  6
CONTINUOUS
 10
257.150000
 20
284.925000
 11
259.125000
 21
282.975000
 39
2
 62
0
  0
LINE
  8
0
  6
CONTINUOUS
 10
259.125000
 20
282.975000
 11
261.075000
 21
281.000000
 39
2
 62
0
  0
LINE
  8
0
  6
CONTINUOUS
 10
261.075000
 20
281.000000
 11
263.050000
 21
279.050000
 39
2
 62
0
  0
LINE
  8
0
  6
CONTINUOUS
 10
263.050000
 20
279.050000
 11
265.000000
 21
277.100000
 39
2
 62
0
  0
LINE
  8
0
  6
CONTINUOUS
 10
265.000000
 20
277.100000
 11
266.975000
 21
275.125000
 39
2
 62
0
  0
LINE
  8
0
  6
CONTINUOUS
 10
266.975000
 20
275.125000
 11
268.925000
 21
273.150000
 39
2
 62
0
  0
LINE
  8
0
  6
CONTINUOUS
 10
268.925000
 20
273.150000
 11
270.900000
 21
271.200000
 39
2
 62
0
  0
LINE
  8
0
  6
CONTINUOUS
 10
270.900000
 20
271.200000
 11
272.850000
 21
269.250000
 39
2
 62
0
  0
LINE
  8
0
  6
CONTINUOUS
 10
272.850000
 20
269.250000
 11
274.825000
 21
267.275000
 39
2
 62
0
  0
LINE
  8
0
  6
CONTINUOUS
 10
274.825000
 20
267.275000
 11
276.775000
 21
265.300000
 39
2
 62
0
  0
LINE
  8
0
  6
CONTINUOUS
 10
276.775000
 20
265.300000
 11
278.750000
 21
263.350000
 39
2
 62
0
  0
LINE
  8
0
  6
CONTINUOUS
 10
278.750000
 20
263.350000
 11
280.700000
 21
261.400000
 39
2
 62
0
  0
LINE
  8
0
  6
CONTINUOUS
 10
280.700000
 20
261.400000
 11
282.675000
 21
259.425000
 39
2
 62
0
  0
LINE
  8
0
  6
CONTINUOUS
 10
282.675000
 20
259.425000
 11
284.625000
 21
257.475000
 39
2
 62
0
  0
LINE
  8
0
  6
CONTINUOUS
 10
284.625000
 20
257.475000
 11
286.600000
 21
255.500000
 39
2
 62
0
  0
LINE
  8
0
  6
CONTINUOUS
 10
286.600000
 20
255.500000
 11
288.550000
 21
253.550000
 39
2
 62
0
  0
LINE
  8
0
  6
CONTINUOUS
 10
288.550000
 20
253.550000
 11
290.525000
 21
251.575000
 39
2
 62
0
  0
LINE
  8
0
  6
CONTINUOUS
 10
290.525000
 20
251.575000
 11
292.475000
 21
249.625000
 39
2
 62
0
  0
LINE
  8
0
  6
CONTINUOUS
 10
292.475000
 20
249.625000
 11
294.450000
 21
247.650000
 39
2
 62
0
  0
LINE
  8
0
  6
CONTINUOUS
 10
294.450000
 20
247.650000
 11
296.400000
 21
245.700000
 39
2
 62
0
  0
LINE
  8
0
  6
CONTINUOUS
 10
296.400000
 20
245.700000
 11
298.375000
 21
243.725000
 39
2
 62
0
  0
LINE
  8
0
  6
CONTINUOUS
 10
298.375000
 20
243.725000
 11
300.725000
 21
241.425000
 39
2
 62
0
  0
LINE
  8
0
  6
CONTINUOUS
 10
300.725000
 20
241.425000
 11
303.125000
 21
239.150000
 39
2
 62
0
  0
LINE
  8
0
  6
CONTINUOUS
 10
303.125000
 20
239.150000
 11
305.550000
 21
236.900000
 39
2
 62
0
  0
LINE
  8
0
  6
CONTINUOUS
 10
305.550000
 20
236.900000
 11
308.025000
 21
234.725000
 39
2
 62
0
  0
LINE
  8
0
  6
CONTINUOUS
 10
308.025000
 20
234.725000
 11
310.525000
 21
232.575000
 39
2
 62
0
  0
LINE
  8
0
  6
CONTINUOUS
 10
310.525000
 20
232.575000
 11
313.075000
 21
230.475000
 39
2
 62
0
  0
LINE
  8
0
  6
CONTINUOUS
 10
313.075000
 20
230.475000
 11
315.650000
 21
228.425000
 39
2
 62
0
  0
LINE
  8
0
  6
CONTINUOUS
 10
315.650000
 20
228.425000
 11
318.275000
 21
226.425000
 39
2
 62
0
  0
LINE
  8
0
  6
CONTINUOUS
 10
318.275000
 20
226.425000
 11
320.925000
 21
224.450000
 39
2
 62
0
  0
LINE
  8
0
  6
CONTINUOUS
 10
320.925000
 20
224.450000
 11
323.625000
 21
222.550000
 39
2
 62
0
  0
LINE
  8
0
  6
CONTINUOUS
 10
323.625000
 20
222.550000
 11
326.325000
 21
220.675000
 39
2
 62
0
  0
LINE
  8
0
  6
CONTINUOUS
 10
326.325000
 20
220.675000
 11
329.075000
 21
218.850000
 39
2
 62
0
  0
LINE
  8
0
  6
CONTINUOUS
 10
329.075000
 20
218.850000
 11
331.875000
 21
217.075000
 39
2
 62
0
  0
LINE
  8
0
  6
CONTINUOUS
 10
331.875000
 20
217.075000
 11
334.700000
 21
215.350000
 39
2
 62
0
  0
LINE
  8
0
  6
CONTINUOUS
 10
334.700000
 20
215.350000
 11
337.525000
 21
213.675000
 39
2
 62
0
  0
LINE
  8
0
  6
CONTINUOUS
 10
337.525000
 20
213.675000
 11
340.400000
 21
212.050000
 39
2
 62
0
  0
LINE
  8
0
  6
CONTINUOUS
 10
340.400000
 20
212.050000
 11
343.300000
 21
210.475000
 39
2
 62
0
  0
LINE
  8
0
  6
CONTINUOUS
 10
343.300000
 20
210.475000
 11
346.225000
 21
208.950000
 39
2
 62
0
  0
LINE
  8
0
  6
CONTINUOUS
 10
346.225000
 20
208.950000
 11
349.175000
 21
207.475000
 39
2
 62
0
  0
LINE
  8
0
  6
CONTINUOUS
 10
349.175000
 20
207.475000
 11
352.175000
 21
206.050000
 39
2
 62
0
  0
LINE
  8
0
  6
CONTINUOUS
 10
352.175000
 20
206.050000
 11
355.175000
 21
204.675000
 39
2
 62
0
  0
LINE
  8
0
  6
CONTINUOUS
 10
355.175000
 20
204.675000
 11
358.200000
 21
203.375000
 39
2
 62
0
  0
LINE
  8
0
  6
CONTINUOUS
 10
358.200000
 20
203.375000
 11
361.250000
 21
202.100000
 39
2
 62
0
  0
LINE
  8
0
  6
CONTINUOUS
 10
361.250000
 20
202.100000
 11
364.325000
 21
200.900000
 39
2
 62
0
  0
LINE
  8
0
  6
CONTINUOUS
 10
364.325000
 20
200.900000
 11
367.400000
 21
199.750000
 39
2
 62
0
  0
LINE
  8
0
  6
CONTINUOUS
 10
367.400000
 20
199.750000
 11
370.525000
 21
198.650000
 39
2
 62
0
  0
LINE
  8
0
  6
CONTINUOUS
 10
370.525000
 20
198.650000
 11
373.650000
 21
197.600000
 39
2
 62
0
  0
LINE
  8
0
  6
CONTINUOUS
 10
373.650000
 20
197.600000
 11
376.800000
 21
196.600000
 39
2
 62
0
  0
LINE
  8
0
  6
CONTINUOUS
 10
376.800000
 20
196.600000
 11
379.975000
 21
195.650000
 39
2
 62
0
  0
LINE
  8
0
  6
CONTINUOUS
 10
379.975000
 20
195.650000
 11
383.150000
 21
194.775000
 39
2
 62
0
  0
LINE
  8
0
  6
CONTINUOUS
 10
383.150000
 20
194.775000
 11
386.350000
 21
193.950000
 39
2
 62
0
  0
LINE
  8
0
  6
CONTINUOUS
 10
386.350000
 20
193.950000
 11
389.575000
 21
193.175000
 39
2
 62
0
  0
LINE
  8
0
  6
CONTINUOUS
 10
389.575000
 20
193.175000
 11
392.775000
 21
192.475000
 39
2
 62
0
  0
LINE
  8
0
  6
CONTINUOUS
 10
392.775000
 20
192.475000
 11
396.025000
 21
191.800000
 39
2
 62
0
  0
LINE
  8
0
  6
CONTINUOUS
 10
396.025000
 20
191.800000
 11
399.275000
 21
191.200000
 39
2
 62
0
  0
LINE
  8
0
  6
CONTINUOUS
 10
399.275000
 20
191.200000
 11
402.525000
 21
190.675000
 39
2
 62
0
  0
LINE
  8
0
  6
CONTINUOUS
 10
402.525000
 20
190.675000
 11
405.800000
 21
190.175000
 39
2
 62
0
  0
LINE
  8
0
  6
CONTINUOUS
 10
405.800000
 20
190.175000
 11
409.075000
 21
189.750000
 39
2
 62
0
  0
LINE
  8
0
  6
CONTINUOUS
 10
409.075000
 20
189.750000
 11
412.350000
 21
189.375000
 39
2
 62
0
  0
LINE
  8
0
  6
CONTINUOUS
 10
412.350000
 20
189.375000
 11
415.625000
 21
189.050000
 39
2
 62
0
  0
LINE
  8
0
  6
CONTINUOUS
 10
415.625000
 20
189.050000
 11
418.925000
 21
188.800000
 39
2
 62
0
  0
LINE
  8
0
  6
CONTINUOUS
 10
418.925000
 20
188.800000
 11
422.225000
 21
188.600000
 39
2
 62
0
  0
LINE
  8
0
  6
CONTINUOUS
 10
422.225000
 20
188.600000
 11
425.525000
 21
188.450000
 39
2
 62
0
  0
LINE
  8
0
  6
CONTINUOUS
 10
425.525000
 20
188.450000
 11
428.825000
 21
188.375000
 39
2
 62
0
  0
LINE
  8
0
  6
CONTINUOUS
 10
428.825000
 20
188.375000
 11
432.125000
 21
188.325000
 39
2
 62
0
  0
LINE
  8
0
  6
CONTINUOUS
 10
432.125000
 20
188.325000
 11
435.425000
 21
188.375000
 39
2
 62
0
  0
LINE
  8
0
  6
CONTINUOUS
 10
435.425000
 20
188.375000
 11
438.725000
 21
188.450000
 39
2
 62
0
  0
LINE
  8
0
  6
CONTINUOUS
 10
438.725000
 20
188.450000
 11
442.025000
 21
188.600000
 39
2
 62
0
  0
LINE
  8
0
  6
CONTINUOUS
 10
442.025000
 20
188.600000
 11
445.325000
 21
188.800000
 39
2
 62
0
  0
LINE
  8
0
  6
CONTINUOUS
 10
445.325000
 20
188.800000
 11
448.600000
 21
189.050000
 39
2
 62
0
  0
LINE
  8
0
  6
CONTINUOUS
 10
448.600000
 20
189.050000
 11
451.900000
 21
189.375000
 39
2
 62
0
  0
LINE
  8
0
  6
CONTINUOUS
 10
451.900000
 20
189.375000
 11
455.175000
 21
189.750000
 39
2
 62
0
  0
LINE
  8
0
  6
CONTINUOUS
 10
455.175000
 20
189.750000
 11
458.450000
 21
190.175000
 39
2
 62
0
  0
LINE
  8
0
  6
CONTINUOUS
 10
458.450000
 20
190.175000
 11
461.700000
 21
190.675000
 39
2
 62
0
  0
LINE
  8
0
  6
CONTINUOUS
 10
461.700000
 20
190.675000
 11
464.950000
 21
191.200000
 39
2
 62
0
  0
LINE
  8
0
  6
CONTINUOUS
 10
464.950000
 20
191.200000
 11
468.200000
 21
191.800000
 39
2
 62
0
  0
LINE
  8
0
  6
CONTINUOUS
 10
468.200000
 20
191.800000
 11
471.425000
 21
192.475000
 39
2
 62
0
  0
LINE
  8
0
  6
CONTINUOUS
 10
471.425000
 20
192.475000
 11
474.650000
 21
193.200000
 39
2
 62
0
  0
LINE
  8
0
  6
CONTINUOUS
 10
474.650000
 20
193.200000
 11
477.875000
 21
193.950000
 39
2
 62
0
  0
LINE
  8
0
  6
CONTINUOUS
 10
477.875000
 20
193.950000
 11
481.075000
 21
194.775000
 39
2
 62
0
  0
LINE
  8
0
  6
CONTINUOUS
 10
481.075000
 20
194.775000
 11
484.250000
 21
195.675000
 39
2
 62
0
  0
LINE
  8
0
  6
CONTINUOUS
 10
484.250000
 20
195.675000
 11
487.400000
 21
196.600000
 39
2
 62
0
  0
LINE
  8
0
  6
CONTINUOUS
 10
487.400000
 20
196.600000
 11
490.550000
 21
197.600000
 39
2
 62
0
  0
LINE
  8
0
  6
CONTINUOUS
 10
490.550000
 20
197.600000
 11
493.675000
 21
198.650000
 39
2
 62
0
  0
LINE
  8
0
  6
CONTINUOUS
 10
493.675000
 20
198.650000
 11
496.800000
 21
199.750000
 39
2
 62
0
  0
LINE
  8
0
  6
CONTINUOUS
 10
496.800000
 20
199.750000
 11
499.875000
 21
200.900000
 39
2
 62
0
  0
LINE
  8
0
  6
CONTINUOUS
 10
499.875000
 20
200.900000
 11
502.950000
 21
202.100000
 39
2
 62
0
  0
LINE
  8
0
  6
CONTINUOUS
 10
502.950000
 20
202.100000
 11
506.000000
 21
203.375000
 39
2
 62
0
  0
LINE
  8
0
  6
CONTINUOUS
 10
506.000000
 20
203.375000
 11
509.025000
 21
204.700000
 39
2
 62
0
  0
LINE
  8
0
  6
CONTINUOUS
 10
509.025000
 20
204.700000
 11
512.025000
 21
206.050000
 39
2
 62
0
  0
LINE
  8
0
  6
CONTINUOUS
 10
512.025000
 20
206.050000
 11
515.000000
 21
207.475000
 39
2
 62
0
  0
LINE
  8
0
  6
CONTINUOUS
 10
515.000000
 20
207.475000
 11
517.950000
 21
208.950000
 39
2
 62
0
  0
LINE
  8
0
  6
CONTINUOUS
 10
517.950000
 20
208.950000
 11
520.900000
 21
210.475000
 39
2
 62
0
  0
LINE
  8
0
  6
CONTINUOUS
 10
520.900000
 20
210.475000
 11
523.800000
 21
212.050000
 39
2
 62
0
  0
LINE
  8
0
  6
CONTINUOUS
 10
523.800000
 20
212.050000
 11
526.650000
 21
213.675000
 39
2
 62
0
  0
LINE
  8
0
  6
CONTINUOUS
 10
526.650000
 20
213.675000
 11
529.500000
 21
215.350000
 39
2
 62
0
  0
LINE
  8
0
  6
CONTINUOUS
 10
529.500000
 20
215.350000
 11
532.325000
 21
217.075000
 39
2
 62
0
  0
LINE
  8
0
  6
CONTINUOUS
 10
532.325000
 20
217.075000
 11
535.100000
 21
218.850000
 39
2
 62
0
  0
LINE
  8
0
  6
CONTINUOUS
 10
535.100000
 20
218.850000
 11
537.850000
 21
220.675000
 39
2
 62
0
  0
LINE
  8
0
  6
CONTINUOUS
 10
537.850000
 20
220.675000
 11
540.575000
 21
222.550000
 39
2
 62
0
  0
LINE
  8
0
  6
CONTINUOUS
 10
540.575000
 20
222.550000
 11
543.250000
 21
224.450000
 39
2
 62
0
  0
LINE
  8
0
  6
CONTINUOUS
 10
543.250000
 20
224.450000
 11
545.925000
 21
226.425000
 39
2
 62
0
  0
LINE
  8
0
  6
CONTINUOUS
 10
545.925000
 20
226.425000
 11
548.525000
 21
228.425000
 39
2
 62
0
  0
LINE
  8
0
  6
CONTINUOUS
 10
548.525000
 20
228.425000
 11
551.125000
 21
230.475000
 39
2
 62
0
  0
LINE
  8
0
  6
CONTINUOUS
 10
551.125000
 20
230.475000
 11
553.650000
 21
232.575000
 39
2
 62
0
  0
LINE
  8
0
  6
CONTINUOUS
 10
553.650000
 20
232.575000
 11
556.175000
 21
234.725000
 39
2
 62
0
  0
LINE
  8
0
  6
CONTINUOUS
 10
556.175000
 20
234.725000
 11
558.650000
 21
236.900000
 39
2
 62
0
  0
LINE
  8
0
  6
CONTINUOUS
 10
558.650000
 20
236.900000
 11
561.075000
 21
239.150000
 39
2
 62
0
  0
LINE
  8
0
  6
CONTINUOUS
 10
561.075000
 20
239.150000
 11
563.475000
 21
241.425000
 39
2
 62
0
  0
LINE
  8
0
  6
CONTINUOUS
 10
563.475000
 20
241.425000
 11
565.825000
 21
243.725000
 39
2
 62
0
  0
LINE
  8
0
  6
CONTINUOUS
 10
565.825000
 20
243.725000
 11
567.300000
 21
245.200000
 39
2
 62
0
  0
LINE
  8
0
  6
CONTINUOUS
 10
567.300000
 20
245.200000
 11
568.750000
 21
246.675000
 39
2
 62
0
  0
LINE
  8
0
  6
CONTINUOUS
 10
568.750000
 20
246.675000
 11
570.225000
 21
248.125000
 39
2
 62
0
  0
LINE
  8
0
  6
CONTINUOUS
 10
570.225000
 20
248.125000
 11
571.700000
 21
249.600000
 39
2
 62
0
  0
LINE
  8
0
  6
CONTINUOUS
 10
571.700000
 20
249.600000
 11
573.175000
 21
251.075000
 39
2
 62
0
  0
LINE
  8
0
  6
CONTINUOUS
 10
573.175000
 20
251.075000
 11
574.625000
 21
252.550000
 39
2
 62
0
  0
LINE
  8
0
  6
CONTINUOUS
 10
574.625000
 20
252.550000
 11
576.100000
 21
254.000000
 39
2
 62
0
  0
LINE
  8
0
  6
CONTINUOUS
 10
576.100000
 20
254.000000
 11
577.575000
 21
255.475000
 39
2
 62
0
  0
LINE
  8
0
  6
CONTINUOUS
 10
577.575000
 20
255.475000
 11
579.025000
 21
256.950000
 39
2
 62
0
  0
LINE
  8
0
  6
CONTINUOUS
 10
579.025000
 20
256.950000
 11
580.500000
 21
258.400000
 39
2
 62
0
  0
LINE
  8
0
  6
CONTINUOUS
 10
580.500000
 20
258.400000
 11
581.975000
 21
259.875000
 39
2
 62
0
  0
LINE
  8
0
  6
CONTINUOUS
 10
581.975000
 20
259.875000
 11
583.450000
 21
261.350000
 39
2
 62
0
  0
LINE
  8
0
  6
CONTINUOUS
 10
583.450000
 20
261.350000
 11
584.925000
 21
262.825000
 39
2
 62
0
  0
LINE
  8
0
  6
CONTINUOUS
 10
584.925000
 20
262.825000
 11
586.375000
 21
264.275000
 39
2
 62
0
  0
LINE
  8
0
  6
CONTINUOUS
 10
586.375000
 20
264.275000
 11
587.850000
 21
265.750000
 39
2
 62
0
  0
LINE
  8
0
  6
CONTINUOUS
 10
587.850000
 20
265.750000
 11
589.325000
 21
267.225000
 39
2
 62
0
  0
LINE
  8
0
  6
CONTINUOUS
 10
589.325000
 20
267.225000
 11
590.775000
 21
268.675000
 39
2
 62
0
  0
LINE
  8
0
  6
CONTINUOUS
 10
590.775000
 20
268.675000
 11
592.250000
 21
270.150000
 39
2
 62
0
  0
LINE
  8
0
  6
CONTINUOUS
 10
592.250000
 20
270.150000
 11
593.725000
 21
271.625000
 39
2
 62
0
  0
LINE
  8
0
  6
CONTINUOUS
 10
593.725000
 20
271.625000
 11
595.200000
 21
273.100000
 39
2
 62
0
  0
LINE
  8
0
  6
CONTINUOUS
 10
595.200000
 20
273.100000
 11
596.650000
 21
274.575000
 39
2
 62
0
  0
LINE
  8
0
  6
CONTINUOUS
 10
-26.525100
 20
304.025000
 11
-25.075200
 21
305.500000
 39
2
 62
0
  0
LINE
  8
0
  6
CONTINUOUS
 10
-25.075200
 20
305.500000
 11
-23.600100
 21
306.950000
 39
2
 62
0
  0
LINE
  8
0
  6
CONTINUOUS
 10
-23.600100
 20
306.950000
 11
-22.125000
 21
308.425000
 39
2
 62
0
  0
LINE
  8
0
  6
CONTINUOUS
 10
-22.125000
 20
308.425000
 11
-20.650100
 21
309.900000
 39
2
 62
0
  0
LINE
  8
0
  6
CONTINUOUS
 10
-20.650100
 20
309.900000
 11
-19.200200
 21
311.375000
 39
2
 62
0
  0
LINE
  8
0
  6
CONTINUOUS
 10
-19.200200
 20
311.375000
 11
-17.725100
 21
312.825000
 39
2
 62
0
  0
LINE
  8
0
  6
CONTINUOUS
 10
-17.725100
 20
312.825000
 11
-16.250000
 21
314.300000
 39
2
 62
0
  0
LINE
  8
0
  6
CONTINUOUS
 10
-16.250000
 20
314.300000
 11
-14.800000
 21
315.775000
 39
2
 62
0
  0
LINE
  8
0
  6
CONTINUOUS
 10
-14.800000
 20
315.775000
 11
-13.325200
 21
317.250000
 39
2
 62
0
  0
LINE
  8
0
  6
CONTINUOUS
 10
-13.325200
 20
317.250000
 11
-11.850100
 21
318.700000
 39
2
 62
0
  0
LINE
  8
0
  6
CONTINUOUS
 10
-11.850100
 20
318.700000
 11
-10.375000
 21
320.175000
 39
2
 62
0
  0
LINE
  8
0
  6
CONTINUOUS
 10
-10.375000
 20
320.175000
 11
-8.925000
 21
321.650000
 39
2
 62
0
  0
LINE
  8
0
  6
CONTINUOUS
 10
-8.925000
 20
321.650000
 11
-7.450200
 21
323.100000
 39
2
 62
0
  0
LINE
  8
0
  6
CONTINUOUS
 10
-7.450200
 20
323.100000
 11
-5.975100
 21
324.575000
 39
2
 62
0
  0
LINE
  8
0
  6
CONTINUOUS
 10
-5.975100
 20
324.575000
 11
-4.500000
 21
326.050000
 39
2
 62
0
  0
LINE
  8
0
  6
CONTINUOUS
 10
-4.500000
 20
326.050000
 11
-3.050000
 21
327.525000
 39
2
 62
0
  0
LINE
  8
0
  6
CONTINUOUS
 10
-3.050000
 20
327.525000
 11
-1.575200
 21
328.975000
 39
2
 62
0
  0
LINE
  8
0
  6
CONTINUOUS
 10
-1.575200
 20
328.975000
 11
-0.100100
 21
330.450000
 39
2
 62
0
  0
LINE
  8
0
  6
CONTINUOUS
 10
-0.100100
 20
330.450000
 11
1.350000
 21
331.925000
 39
2
 62
0
  0
LINE
  8
0
  6
CONTINUOUS
 10
1.350000
 20
331.925000
 11
2.825000
 21
333.400000
 39
2
 62
0
  0
LINE
  8
0
  6
CONTINUOUS
 10
2.825000
 20
333.400000
 11
4.300000
 21
334.850000
 39
2
 62
0
  0
LINE
  8
0
  6
CONTINUOUS
 10
4.300000
 20
334.850000
 11
6.650000
 21
337.175000
 39
2
 62
0
  0
LINE
  8
0
  6
CONTINUOUS
 10
6.650000
 20
337.175000
 11
9.050000
 21
339.450000
 39
2
 62
0
  0
LINE
  8
0
  6
CONTINUOUS
 10
9.050000
 20
339.450000
 11
11.475000
 21
341.675000
 39
2
 62
0
  0
LINE
  8
0
  6
CONTINUOUS
 10
11.475000
 20
341.675000
 11
13.950000
 21
343.850000
 39
2
 62
0
  0
LINE
  8
0
  6
CONTINUOUS
 10
13.950000
 20
343.850000
 11
16.450000
 21
346.000000
 39
2
 62
0
  0
LINE
  8
0
  6
CONTINUOUS
 10
16.450000
 20
346.000000
 11
19.000000
 21
348.100000
 39
2
 62
0
  0
LINE
  8
0
  6
CONTINUOUS
 10
19.000000
 20
348.100000
 11
21.600000
 21
350.150000
 39
2
 62
0
  0
LINE
  8
0
  6
CONTINUOUS
 10
21.600000
 20
350.150000
 11
24.200000
 21
352.175000
 39
2
 62
0
  0
LINE
  8
0
  6
CONTINUOUS
 10
24.200000
 20
352.175000
 11
26.850000
 21
354.125000
 39
2
 62
0
  0
LINE
  8
0
  6
CONTINUOUS
 10
26.850000
 20
354.125000
 11
29.550000
 21
356.050000
 39
2
 62
0
  0
LINE
  8
0
  6
CONTINUOUS
 10
29.550000
 20
356.050000
 11
32.275000
 21
357.900000
 39
2
 62
0
  0
LINE
  8
0
  6
CONTINUOUS
 10
32.275000
 20
357.900000
 11
35.025000
 21
359.725000
 39
2
 62
0
  0
LINE
  8
0
  6
CONTINUOUS
 10
35.025000
 20
359.725000
 11
37.800000
 21
361.500000
 39
2
 62
0
  0
LINE
  8
0
  6
CONTINUOUS
 10
37.800000
 20
361.500000
 11
40.625000
 21
363.225000
 39
2
 62
0
  0
LINE
  8
0
  6
CONTINUOUS
 10
40.625000
 20
363.225000
 11
43.475000
 21
364.900000
 39
2
 62
0
  0
LINE
  8
0
  6
CONTINUOUS
 10
43.475000
 20
364.900000
 11
46.325000
 21
366.525000
 39
2
 62
0
  0
LINE
  8
0
  6
CONTINUOUS
 10
46.325000
 20
366.525000
 11
49.225000
 21
368.100000
 39
2
 62
0
  0
LINE
  8
0
  6
CONTINUOUS
 10
49.225000
 20
368.100000
 11
52.175000
 21
369.625000
 39
2
 62
0
  0
LINE
  8
0
  6
CONTINUOUS
 10
52.175000
 20
369.625000
 11
55.125000
 21
371.100000
 39
2
 62
0
  0
LINE
  8
0
  6
CONTINUOUS
 10
55.125000
 20
371.100000
 11
58.100000
 21
372.525000
 39
2
 62
0
  0
LINE
  8
0
  6
CONTINUOUS
 10
58.100000
 20
372.525000
 11
61.100000
 21
373.900000
 39
2
 62
0
  0
LINE
  8
0
  6
CONTINUOUS
 10
61.100000
 20
373.900000
 11
64.125000
 21
375.225000
 39
2
 62
0
  0
LINE
  8
0
  6
CONTINUOUS
 10
64.125000
 20
375.225000
 11
67.175000
 21
376.475000
 39
2
 62
0
  0
LINE
  8
0
  6
CONTINUOUS
 10
67.175000
 20
376.475000
 11
70.250000
 21
377.700000
 39
2
 62
0
  0
LINE
  8
0
  6
CONTINUOUS
 10
70.250000
 20
377.700000
 11
73.350000
 21
378.850000
 39
2
 62
0
  0
LINE
  8
0
  6
CONTINUOUS
 10
73.350000
 20
378.850000
 11
76.450000
 21
379.950000
 39
2
 62
0
  0
LINE
  8
0
  6
CONTINUOUS
 10
76.450000
 20
379.950000
 11
79.575000
 21
381.000000
 39
2
 62
0
  0
LINE
  8
0
  6
CONTINUOUS
 10
79.575000
 20
381.000000
 11
82.725000
 21
381.975000
 39
2
 62
0
  0
LINE
  8
0
  6
CONTINUOUS
 10
82.725000
 20
381.975000
 11
85.900000
 21
382.925000
 39
2
 62
0
  0
LINE
  8
0
  6
CONTINUOUS
 10
85.900000
 20
382.925000
 11
89.100000
 21
383.800000
 39
2
 62
0
  0
LINE
  8
0
  6
CONTINUOUS
 10
89.100000
 20
383.800000
 11
92.275000
 21
384.625000
 39
2
 62
0
  0
LINE
  8
0
  6
CONTINUOUS
 10
92.275000
 20
384.625000
 11
95.500000
 21
385.400000
 39
2
 62
0
  0
LINE
  8
0
  6
CONTINUOUS
 10
95.500000
 20
385.400000
 11
98.725000
 21
386.125000
 39
2
 62
0
  0
LINE
  8
0
  6
CONTINUOUS
 10
98.725000
 20
386.125000
 11
101.950000
 21
386.775000
 39
2
 62
0
  0
LINE
  8
0
  6
CONTINUOUS
 10
101.950000
 20
386.775000
 11
105.200000
 21
387.375000
 39
2
 62
0
  0
LINE
  8
0
  6
CONTINUOUS
 10
105.200000
 20
387.375000
 11
108.450000
 21
387.925000
 39
2
 62
0
  0
LINE
  8
0
  6
CONTINUOUS
 10
108.450000
 20
387.925000
 11
111.725000
 21
388.400000
 39
2
 62
0
  0
LINE
  8
0
  6
CONTINUOUS
 10
111.725000
 20
388.400000
 11
115.000000
 21
388.850000
 39
2
 62
0
  0
LINE
  8
0
  6
CONTINUOUS
 10
115.000000
 20
388.850000
 11
118.275000
 21
389.225000
 39
2
 62
0
  0
LINE
  8
0
  6
CONTINUOUS
 10
118.275000
 20
389.225000
 11
121.575000
 21
389.525000
 39
2
 62
0
  0
LINE
  8
0
  6
CONTINUOUS
 10
121.575000
 20
389.525000
 11
124.850000
 21
389.800000
 39
2
 62
0
  0
LINE
  8
0
  6
CONTINUOUS
 10
124.850000
 20
389.800000
 11
128.150000
 21
390.000000
 39
2
 62
0
  0
LINE
  8
0
  6
CONTINUOUS
 10
128.150000
 20
390.000000
 11
131.450000
 21
390.125000
 39
2
 62
0
  0
LINE
  8
0
  6
CONTINUOUS
 10
131.450000
 20
390.125000
 11
134.750000
 21
390.225000
 39
2
 62
0
  0
LINE
  8
0
  6
CONTINUOUS
 10
134.750000
 20
390.225000
 11
138.050000
 21
390.250000
 39
2
 62
0
  0
LINE
  8
0
  6
CONTINUOUS
 10
138.050000
 20
390.250000
 11
141.350000
 21
390.225000
 39
2
 62
0
  0
LINE
  8
0
  6
CONTINUOUS
 10
141.350000
 20
390.225000
 11
144.650000
 21
390.125000
 39
2
 62
0
  0
LINE
  8
0
  6
CONTINUOUS
 10
144.650000
 20
390.125000
 11
147.950000
 21
390.000000
 39
2
 62
0
  0
LINE
  8
0
  6
CONTINUOUS
 10
147.950000
 20
390.000000
 11
151.250000
 21
389.775000
 39
2
 62
0
  0
LINE
  8
0
  6
CONTINUOUS
 10
151.250000
 20
389.775000
 11
154.550000
 21
389.525000
 39
2
 62
0
  0
LINE
  8
0
  6
CONTINUOUS
 10
154.550000
 20
389.525000
 11
157.825000
 21
389.200000
 39
2
 62
0
  0
LINE
  8
0
  6
CONTINUOUS
 10
157.825000
 20
389.200000
 11
161.100000
 21
388.825000
 39
2
 62
0
  0
LINE
  8
0
  6
CONTINUOUS
 10
161.100000
 20
388.825000
 11
164.375000
 21
388.400000
 39
2
 62
0
  0
LINE
  8
0
  6
CONTINUOUS
 10
164.375000
 20
388.400000
 11
167.650000
 21
387.925000
 39
2
 62
0
  0
LINE
  8
0
  6
CONTINUOUS
 10
167.650000
 20
387.925000
 11
170.900000
 21
387.375000
 39
2
 62
0
  0
LINE
  8
0
  6
CONTINUOUS
 10
170.900000
 20
387.375000
 11
174.125000
 21
386.775000
 39
2
 62
0
  0
LINE
  8
0
  6
CONTINUOUS
 10
174.125000
 20
386.775000
 11
177.375000
 21
386.125000
 39
2
 62
0
  0
LINE
  8
0
  6
CONTINUOUS
 10
177.375000
 20
386.125000
 11
180.600000
 21
385.400000
 39
2
 62
0
  0
LINE
  8
0
  6
CONTINUOUS
 10
180.600000
 20
385.400000
 11
183.800000
 21
384.625000
 39
2
 62
0
  0
LINE
  8
0
  6
CONTINUOUS
 10
183.800000
 20
384.625000
 11
187.000000
 21
383.800000
 39
2
 62
0
  0
LINE
  8
0
  6
CONTINUOUS
 10
187.000000
 20
383.800000
 11
190.175000
 21
382.925000
 39
2
 62
0
  0
LINE
  8
0
  6
CONTINUOUS
 10
190.175000
 20
382.925000
 11
193.350000
 21
381.975000
 39
2
 62
0
  0
LINE
  8
0
  6
CONTINUOUS
 10
193.350000
 20
381.975000
 11
196.475000
 21
380.975000
 39
2
 62
0
  0
LINE
  8
0
  6
CONTINUOUS
 10
196.475000
 20
380.975000
 11
199.625000
 21
379.950000
 39
2
 62
0
  0
LINE
  8
0
  6
CONTINUOUS
 10
199.625000
 20
379.950000
 11
202.725000
 21
378.850000
 39
2
 62
0
  0
LINE
  8
0
  6
CONTINUOUS
 10
202.725000
 20
378.850000
 11
205.825000
 21
377.675000
 39
2
 62
0
  0
LINE
  8
0
  6
CONTINUOUS
 10
205.825000
 20
377.675000
 11
208.875000
 21
376.475000
 39
2
 62
0
  0
LINE
  8
0
  6
CONTINUOUS
 10
208.875000
 20
376.475000
 11
211.925000
 21
375.200000
 39
2
 62
0
  0
LINE
  8
0
  6
CONTINUOUS
 10
211.925000
 20
375.200000
 11
214.975000
 21
373.900000
 39
2
 62
0
  0
LINE
  8
0
  6
CONTINUOUS
 10
214.975000
 20
373.900000
 11
217.975000
 21
372.525000
 39
2
 62
0
  0
LINE
  8
0
  6
CONTINUOUS
 10
217.975000
 20
372.525000
 11
220.950000
 21
371.100000
 39
2
 62
0
  0
LINE
  8
0
  6
CONTINUOUS
 10
220.950000
 20
371.100000
 11
223.900000
 21
369.625000
 39
2
 62
0
  0
LINE
  8
0
  6
CONTINUOUS
 10
223.900000
 20
369.625000
 11
226.825000
 21
368.100000
 39
2
 62
0
  0
LINE
  8
0
  6
CONTINUOUS
 10
226.825000
 20
368.100000
 11
229.725000
 21
366.525000
 39
2
 62
0
  0
LINE
  8
0
  6
CONTINUOUS
 10
229.725000
 20
366.525000
 11
232.600000
 21
364.900000
 39
2
 62
0
  0
LINE
  8
0
  6
CONTINUOUS
 10
232.600000
 20
364.900000
 11
235.450000
 21
363.225000
 39
2
 62
0
  0
LINE
  8
0
  6
CONTINUOUS
 10
235.450000
 20
363.225000
 11
238.250000
 21
361.500000
 39
2
 62
0
  0
LINE
  8
0
  6
CONTINUOUS
 10
238.250000
 20
361.500000
 11
241.050000
 21
359.725000
 39
2
 62
0
  0
LINE
  8
0
  6
CONTINUOUS
 10
241.050000
 20
359.725000
 11
243.800000
 21
357.900000
 39
2
 62
0
  0
LINE
  8
0
  6
CONTINUOUS
 10
243.800000
 20
357.900000
 11
246.500000
 21
356.050000
 39
2
 62
0
  0
LINE
  8
0
  6
CONTINUOUS
 10
246.500000
 20
356.050000
 11
249.200000
 21
354.125000
 39
2
 62
0
  0
LINE
  8
0
  6
CONTINUOUS
 10
249.200000
 20
354.125000
 11
251.850000
 21
352.175000
 39
2
 62
0
  0
LINE
  8
0
  6
CONTINUOUS
 10
251.850000
 20
352.175000
 11
254.450000
 21
350.150000
 39
2
 62
0
  0
LINE
  8
0
  6
CONTINUOUS
 10
254.450000
 20
350.150000
 11
257.050000
 21
348.100000
 39
2
 62
0
  0
LINE
  8
0
  6
CONTINUOUS
 10
257.050000
 20
348.100000
 11
259.600000
 21
346.000000
 39
2
 62
0
  0
LINE
  8
0
  6
CONTINUOUS
 10
259.600000
 20
346.000000
 11
262.100000
 21
343.850000
 39
2
 62
0
  0
LINE
  8
0
  6
CONTINUOUS
 10
262.100000
 20
343.850000
 11
264.575000
 21
341.675000
 39
2
 62
0
  0
LINE
  8
0
  6
CONTINUOUS
 10
264.575000
 20
341.675000
 11
267.000000
 21
339.450000
 39
2
 62
0
  0
LINE
  8
0
  6
CONTINUOUS
 10
267.000000
 20
339.450000
 11
269.400000
 21
337.175000
 39
2
 62
0
  0
LINE
  8
0
  6
CONTINUOUS
 10
269.400000
 20
337.175000
 11
271.750000
 21
334.850000
 39
2
 62
0
  0
LINE
  8
0
  6
CONTINUOUS
 10
271.750000
 20
334.850000
 11
273.725000
 21
332.900000
 39
2
 62
0
  0
LINE
  8
0
  6
CONTINUOUS
 10
273.725000
 20
332.900000
 11
275.675000
 21
330.925000
 39
2
 62
0
  0
LINE
  8
0
  6
CONTINUOUS
 10
275.675000
 20
330.925000
 11
277.650000
 21
328.975000
 39
2
 62
0
  0
LINE
  8
0
  6
CONTINUOUS
 10
277.650000
 20
328.975000
 11
279.600000
 21
327.000000
 39
2
 62
0
  0
LINE
  8
0
  6
CONTINUOUS
 10
279.600000
 20
327.000000
 11
281.575000
 21
325.050000
 39
2
 62
0
  0
LINE
  8
0
  6
CONTINUOUS
 10
281.575000
 20
325.050000
 11
283.525000
 21
323.075000
 39
2
 62
0
  0
LINE
  8
0
  6
CONTINUOUS
 10
283.525000
 20
323.075000
 11
285.500000
 21
321.125000
 39
2
 62
0
  0
LINE
  8
0
  6
CONTINUOUS
 10
285.500000
 20
321.125000
 11
287.450000
 21
319.150000
 39
2
 62
0
  0
LINE
  8
0
  6
CONTINUOUS
 10
287.450000
 20
319.150000
 11
289.425000
 21
317.200000
 39
2
 62
0
  0
LINE
  8
0
  6
CONTINUOUS
 10
289.425000
 20
317.200000
 11
291.375000
 21
315.225000
 39
2
 62
0
  0
LINE
  8
0
  6
CONTINUOUS
 10
291.375000
 20
315.225000
 11
293.350000
 21
313.275000
 39
2
 62
0
  0
LINE
  8
0
  6
CONTINUOUS
 10
293.350000
 20
313.275000
 11
295.300000
 21
311.300000
 39
2
 62
0
  0
LINE
  8
0
  6
CONTINUOUS
 10
295.300000
 20
311.300000
 11
297.275000
 21
309.350000
 39
2
 62
0
  0
LINE
  8
0
  6
CONTINUOUS
 10
297.275000
 20
309.350000
 11
299.225000
 21
307.375000
 39
2
 62
0
  0
LINE
  8
0
  6
CONTINUOUS
 10
299.225000
 20
307.375000
 11
301.200000
 21
305.425000
 39
2
 62
0
  0
LINE
  8
0
  6
CONTINUOUS
 10
301.200000
 20
305.425000
 11
303.150000
 21
303.450000
 39
2
 62
0
  0
LINE
  8
0
  6
CONTINUOUS
 10
303.150000
 20
303.450000
 11
305.125000
 21
301.500000
 39
2
 62
0
  0
LINE
  8
0
  6
CONTINUOUS
 10
305.125000
 20
301.500000
 11
307.075000
 21
299.525000
 39
2
 62
0
  0
LINE
  8
0
  6
CONTINUOUS
 10
307.075000
 20
299.525000
 11
309.050000
 21
297.575000
 39
2
 62
0
  0
LINE
  8
0
  6
CONTINUOUS
 10
309.050000
 20
297.575000
 11
311.000000
 21
295.625000
 39
2
 62
0
  0
LINE
  8
0
  6
CONTINUOUS
 10
311.000000
 20
295.625000
 11
312.950000
 21
293.650000
 39
2
 62
0
  0
LINE
  8
0
  6
CONTINUOUS
 10
312.950000
 20
293.650000
 11
314.925000
 21
291.675000
 39
2
 62
0
  0
LINE
  8
0
  6
CONTINUOUS
 10
314.925000
 20
291.675000
 11
316.900000
 21
289.725000
 39
2
 62
0
  0
LINE
  8
0
  6
CONTINUOUS
 10
316.900000
 20
289.725000
 11
318.850000
 21
287.775000
 39
2
 62
0
  0
LINE
  8
0
  6
CONTINUOUS
 10
318.850000
 20
287.775000
 11
320.825000
 21
285.800000
 39
2
 62
0
  0
LINE
  8
0
  6
CONTINUOUS
 10
320.825000
 20
285.800000
 11
322.775000
 21
283.825000
 39
2
 62
0
  0
LINE
  8
0
  6
CONTINUOUS
 10
322.775000
 20
283.825000
 11
324.750000
 21
281.875000
 39
2
 62
0
  0
LINE
  8
0
  6
CONTINUOUS
 10
324.750000
 20
281.875000
 11
326.700000
 21
279.900000
 39
2
 62
0
  0
LINE
  8
0
  6
CONTINUOUS
 10
326.700000
 20
279.900000
 11
328.675000
 21
277.950000
 39
2
 62
0
  0
LINE
  8
0
  6
CONTINUOUS
 10
328.675000
 20
277.950000
 11
330.625000
 21
276.000000
 39
2
 62
0
  0
LINE
  8
0
  6
CONTINUOUS
 10
330.625000
 20
276.000000
 11
332.425000
 21
274.225000
 39
2
 62
0
  0
LINE
  8
0
  6
CONTINUOUS
 10
332.425000
 20
274.225000
 11
334.225000
 21
272.500000
 39
2
 62
0
  0
LINE
  8
0
  6
CONTINUOUS
 10
334.225000
 20
272.500000
 11
336.075000
 21
270.825000
 39
2
 62
0
  0
LINE
  8
0
  6
CONTINUOUS
 10
336.075000
 20
270.825000
 11
337.950000
 21
269.150000
 39
2
 62
0
  0
LINE
  8
0
  6
CONTINUOUS
 10
337.950000
 20
269.150000
 11
339.850000
 21
267.525000
 39
2
 62
0
  0
LINE
  8
0
  6
CONTINUOUS
 10
339.850000
 20
267.525000
 11
341.775000
 21
265.950000
 39
2
 62
0
  0
LINE
  8
0
  6
CONTINUOUS
 10
341.775000
 20
265.950000
 11
343.750000
 21
264.375000
 39
2
 62
0
  0
LINE
  8
0
  6
CONTINUOUS
 10
343.750000
 20
264.375000
 11
345.725000
 21
262.850000
 39
2
 62
0
  0
LINE
  8
0
  6
CONTINUOUS
 10
345.725000
 20
262.850000
 11
347.750000
 21
261.375000
 39
2
 62
0
  0
LINE
  8
0
  6
CONTINUOUS
 10
347.750000
 20
261.375000
 11
349.775000
 21
259.900000
 39
2
 62
0
  0
LINE
  8
0
  6
CONTINUOUS
 10
349.775000
 20
259.900000
 11
351.850000
 21
258.500000
 39
2
 62
0
  0
LINE
  8
0
  6
CONTINUOUS
 10
351.850000
 20
258.500000
 11
353.925000
 21
257.100000
 39
2
 62
0
  0
LINE
  8
0
  6
CONTINUOUS
 10
353.925000
 20
257.100000
 11
356.050000
 21
255.775000
 39
2
 62
0
  0
LINE
  8
0
  6
CONTINUOUS
 10
356.050000
 20
255.775000
 11
358.175000
 21
254.450000
 39
2
 62
0
  0
LINE
  8
0
  6
CONTINUOUS
 10
358.175000
 20
254.450000
 11
360.350000
 21
253.175000
 39
2
 62
0
  0
LINE
  8
0
  6
CONTINUOUS
 10
360.350000
 20
253.175000
 11
362.525000
 21
251.950000
 39
2
 62
0
  0
LINE
  8
0
  6
CONTINUOUS
 10
362.525000
 20
251.950000
 11
364.725000
 21
250.750000
 39
2
 62
0
  0
LINE
  8
0
  6
CONTINUOUS
 10
364.725000
 20
250.750000
 11
366.950000
 21
249.600000
 39
2
 62
0
  0
LINE
  8
0
  6
CONTINUOUS
 10
366.950000
 20
249.600000
 11
369.175000
 21
248.475000
 39
2
 62
0
  0
LINE
  8
0
  6
CONTINUOUS
 10
369.175000
 20
248.475000
 11
371.450000
 21
247.400000
 39
2
 62
0
  0
LINE
  8
0
  6
CONTINUOUS
 10
371.450000
 20
247.400000
 11
373.725000
 21
246.375000
 39
2
 62
0
  0
LINE
  8
0
  6
CONTINUOUS
 10
373.725000
 20
246.375000
 11
376.025000
 21
245.375000
 39
2
 62
0
  0
LINE
  8
0
  6
CONTINUOUS
 10
376.025000
 20
245.375000
 11
378.350000
 21
244.400000
 39
2
 62
0
  0
LINE
  8
0
  6
CONTINUOUS
 10
378.350000
 20
244.400000
 11
380.675000
 21
243.500000
 39
2
 62
0
  0
LINE
  8
0
  6
CONTINUOUS
 10
380.675000
 20
243.500000
 11
383.025000
 21
242.600000
 39
2
 62
0
  0
LINE
  8
0
  6
CONTINUOUS
 10
383.025000
 20
242.600000
 11
385.375000
 21
241.775000
 39
2
 62
0
  0
LINE
  8
0
  6
CONTINUOUS
 10
385.375000
 20
241.775000
 11
387.750000
 21
240.975000
 39
2
 62
0
  0
LINE
  8
0
  6
CONTINUOUS
 10
387.750000
 20
240.975000
 11
390.150000
 21
240.225000
 39
2
 62
0
  0
LINE
  8
0
  6
CONTINUOUS
 10
390.150000
 20
240.225000
 11
392.550000
 21
239.525000
 39
2
 62
0
  0
LINE
  8
0
  6
CONTINUOUS
 10
392.550000
 20
239.525000
 11
394.975000
 21
238.850000
 39
2
 62
0
  0
LINE
  8
0
  6
CONTINUOUS
 10
394.975000
 20
238.850000
 11
397.400000
 21
238.225000
 39
2
 62
0
  0
LINE
  8
0
  6
CONTINUOUS
 10
397.400000
 20
238.225000
 11
399.825000
 21
237.625000
 39
2
 62
0
  0
LINE
  8
0
  6
CONTINUOUS
 10
399.825000
 20
237.625000
 11
402.275000
 21
237.100000
 39
2
 62
0
  0
LINE
  8
0
  6
CONTINUOUS
 10
402.275000
 20
237.100000
 11
404.725000
 21
236.600000
 39
2
 62
0
  0
LINE
  8
0
  6
CONTINUOUS
 10
404.725000
 20
236.600000
 11
407.175000
 21
236.150000
 39
2
 62
0
  0
LINE
  8
0
  6
CONTINUOUS
 10
407.175000
 20
236.150000
 11
409.650000
 21
235.725000
 39
2
 62
0
  0
LINE
  8
0
  6
CONTINUOUS
 10
409.650000
 20
235.725000
 11
412.125000
 21
235.350000
 39
2
 62
0
  0
LINE
  8
0
  6
CONTINUOUS
 10
412.125000
 20
235.350000
 11
414.625000
 21
235.025000
 39
2
 62
0
  0
LINE
  8
0
  6
CONTINUOUS
 10
414.625000
 20
235.025000
 11
417.125000
 21
234.750000
 39
2
 62
0
  0
LINE
  8
0
  6
CONTINUOUS
 10
417.125000
 20
234.750000
 11
419.600000
 21
234.500000
 39
2
 62
0
  0
LINE
  8
0
  6
CONTINUOUS
 10
419.600000
 20
234.500000
 11
422.100000
 21
234.300000
 39
2
 62
0
  0
LINE
  8
0
  6
CONTINUOUS
 10
422.100000
 20
234.300000
 11
424.600000
 21
234.150000
 39
2
 62
0
  0
LINE
  8
0
  6
CONTINUOUS
 10
424.600000
 20
234.150000
 11
427.100000
 21
234.050000
 39
2
 62
0
  0
LINE
  8
0
  6
CONTINUOUS
 10
427.100000
 20
234.050000
 11
429.600000
 21
233.975000
 39
2
 62
0
  0
LINE
  8
0
  6
CONTINUOUS
 10
429.600000
 20
233.975000
 11
432.125000
 21
233.950000
 39
2
 62
0
  0
LINE
  8
0
  6
CONTINUOUS
 10
432.125000
 20
233.950000
 11
434.625000
 21
233.975000
 39
2
 62
0
  0
LINE
  8
0
  6
CONTINUOUS
 10
434.625000
 20
233.975000
 11
437.125000
 21
234.050000
 39
2
 62
0
  0
LINE
  8
0
  6
CONTINUOUS
 10
437.125000
 20
234.050000
 11
439.625000
 21
234.150000
 39
2
 62
0
  0
LINE
  8
0
  6
CONTINUOUS
 10
439.625000
 20
234.150000
 11
442.125000
 21
234.300000
 39
2
 62
0
  0
LINE
  8
0
  6
CONTINUOUS
 10
442.125000
 20
234.300000
 11
444.625000
 21
234.500000
 39
2
 62
0
  0
LINE
  8
0
  6
CONTINUOUS
 10
444.625000
 20
234.500000
 11
447.125000
 21
234.750000
 39
2
 62
0
  0
LINE
  8
0
  6
CONTINUOUS
 10
447.125000
 20
234.750000
 11
449.600000
 21
235.025000
 39
2
 62
0
  0
LINE
  8
0
  6
CONTINUOUS
 10
449.600000
 20
235.025000
 11
452.075000
 21
235.350000
 39
2
 62
0
  0
LINE
  8
0
  6
CONTINUOUS
 10
452.075000
 20
235.350000
 11
454.550000
 21
235.725000
 39
2
 62
0
  0
LINE
  8
0
  6
CONTINUOUS
 10
454.550000
 20
235.725000
 11
457.025000
 21
236.150000
 39
2
 62
0
  0
LINE
  8
0
  6
CONTINUOUS
 10
457.025000
 20
236.150000
 11
459.500000
 21
236.600000
 39
2
 62
0
  0
LINE
  8
0
  6
CONTINUOUS
 10
459.500000
 20
236.600000
 11
461.950000
 21
237.100000
 39
2
 62
0
  0
LINE
  8
0
  6
CONTINUOUS
 10
461.950000
 20
237.100000
 11
464.400000
 21
237.650000
 39
2
 62
0
  0
LINE
  8
0
  6
CONTINUOUS
 10
464.400000
 20
237.650000
 11
466.825000
 21
238.225000
 39
2
 62
0
  0
LINE
  8
0
  6
CONTINUOUS
 10
466.825000
 20
238.225000
 11
469.250000
 21
238.850000
 39
2
 62
0
  0
LINE
  8
0
  6
CONTINUOUS
 10
469.250000
 20
238.850000
 11
471.675000
 21
239.525000
 39
2
 62
0
  0
LINE
  8
0
  6
CONTINUOUS
 10
471.675000
 20
239.525000
 11
474.075000
 21
240.225000
 39
2
 62
0
  0
LINE
  8
0
  6
CONTINUOUS
 10
474.075000
 20
240.225000
 11
476.450000
 21
241.000000
 39
2
 62
0
  0
LINE
  8
0
  6
CONTINUOUS
 10
476.450000
 20
241.000000
 11
478.825000
 21
241.775000
 39
2
 62
0
  0
LINE
  8
0
  6
CONTINUOUS
 10
478.825000
 20
241.775000
 11
481.175000
 21
242.625000
 39
2
 62
0
  0
LINE
  8
0
  6
CONTINUOUS
 10
481.175000
 20
242.625000
 11
483.525000
 21
243.500000
 39
2
 62
0
  0
LINE
  8
0
  6
CONTINUOUS
 10
483.525000
 20
243.500000
 11
485.850000
 21
244.400000
 39
2
 62
0
  0
LINE
  8
0
  6
CONTINUOUS
 10
485.850000
 20
244.400000
 11
488.175000
 21
245.375000
 39
2
 62
0
  0
LINE
  8
0
  6
CONTINUOUS
 10
488.175000
 20
245.375000
 11
490.475000
 21
246.375000
 39
2
 62
0
  0
LINE
  8
0
  6
CONTINUOUS
 10
490.475000
 20
246.375000
 11
492.750000
 21
247.400000
 39
2
 62
0
  0
LINE
  8
0
  6
CONTINUOUS
 10
492.750000
 20
247.400000
 11
495.000000
 21
248.475000
 39
2
 62
0
  0
LINE
  8
0
  6
CONTINUOUS
 10
495.000000
 20
248.475000
 11
497.250000
 21
249.600000
 39
2
 62
0
  0
LINE
  8
0
  6
CONTINUOUS
 10
497.250000
 20
249.600000
 11
499.475000
 21
250.750000
 39
2
 62
0
  0
LINE
  8
0
  6
CONTINUOUS
 10
499.475000
 20
250.750000
 11
501.675000
 21
251.950000
 39
2
 62
0
  0
LINE
  8
0
  6
CONTINUOUS
 10
501.675000
 20
251.950000
 11
503.850000
 21
253.200000
 39
2
 62
0
  0
LINE
  8
0
  6
CONTINUOUS
 10
503.850000
 20
253.200000
 11
506.000000
 21
254.450000
 39
2
 62
0
  0
LINE
  8
0
  6
CONTINUOUS
 10
506.000000
 20
254.450000
 11
508.150000
 21
255.775000
 39
2
 62
0
  0
LINE
  8
0
  6
CONTINUOUS
 10
508.150000
 20
255.775000
 11
510.250000
 21
257.100000
 39
2
 62
0
  0
LINE
  8
0
  6
CONTINUOUS
 10
510.250000
 20
257.100000
 11
512.350000
 21
258.500000
 39
2
 62
0
  0
LINE
  8
0
  6
CONTINUOUS
 10
512.350000
 20
258.500000
 11
514.400000
 21
259.925000
 39
2
 62
0
  0
LINE
  8
0
  6
CONTINUOUS
 10
514.400000
 20
259.925000
 11
516.450000
 21
261.375000
 39
2
 62
0
  0
LINE
  8
0
  6
CONTINUOUS
 10
516.450000
 20
261.375000
 11
518.450000
 21
262.850000
 39
2
 62
0
  0
LINE
  8
0
  6
CONTINUOUS
 10
518.450000
 20
262.850000
 11
520.450000
 21
264.375000
 39
2
 62
0
  0
LINE
  8
0
  6
CONTINUOUS
 10
520.450000
 20
264.375000
 11
522.400000
 21
265.950000
 39
2
 62
0
  0
LINE
  8
0
  6
CONTINUOUS
 10
522.400000
 20
265.950000
 11
524.350000
 21
267.525000
 39
2
 62
0
  0
LINE
  8
0
  6
CONTINUOUS
 10
524.350000
 20
267.525000
 11
526.250000
 21
269.150000
 39
2
 62
0
  0
LINE
  8
0
  6
CONTINUOUS
 10
526.250000
 20
269.150000
 11
528.125000
 21
270.825000
 39
2
 62
0
  0
LINE
  8
0
  6
CONTINUOUS
 10
528.125000
 20
270.825000
 11
529.950000
 21
272.500000
 39
2
 62
0
  0
LINE
  8
0
  6
CONTINUOUS
 10
529.950000
 20
272.500000
 11
531.775000
 21
274.225000
 39
2
 62
0
  0
LINE
  8
0
  6
CONTINUOUS
 10
531.775000
 20
274.225000
 11
533.550000
 21
276.000000
 39
2
 62
0
  0
LINE
  8
0
  6
CONTINUOUS
 10
533.550000
 20
276.000000
 11
535.025000
 21
277.450000
 39
2
 62
0
  0
LINE
  8
0
  6
CONTINUOUS
 10
535.025000
 20
277.450000
 11
536.500000
 21
278.925000
 39
2
 62
0
  0
LINE
  8
0
  6
CONTINUOUS
 10
536.500000
 20
278.925000
 11
537.975000
 21
280.400000
 39
2
 62
0
  0
LINE
  8
0
  6
CONTINUOUS
 10
537.975000
 20
280.400000
 11
539.450000
 21
281.850000
 39
2
 62
0
  0
LINE
  8
0
  6
CONTINUOUS
 10
539.450000
 20
281.850000
 11
540.900000
 21
283.325000
 39
2
 62
0
  0
LINE
  8
0
  6
CONTINUOUS
 10
540.900000
 20
283.325000
 11
542.375000
 21
284.800000
 39
2
 62
0
  0
LINE
  8
0
  6
CONTINUOUS
 10
542.375000
 20
284.800000
 11
543.850000
 21
286.275000
 39
2
 62
0
  0
LINE
  8
0
  6
CONTINUOUS
 10
543.850000
 20
286.275000
 11
545.300000
 21
287.725000
 39
2
 62
0
  0
LINE
  8
0
  6
CONTINUOUS
 10
545.300000
 20
287.725000
 11
546.775000
 21
289.200000
 39
2
 62
0
  0
LINE
  8
0
  6
CONTINUOUS
 10
546.775000
 20
289.200000
 11
548.250000
 21
290.675000
 39
2
 62
0
  0
LINE
  8
0
  6
CONTINUOUS
 10
548.250000
 20
290.675000
 11
549.725000
 21
292.125000
 39
2
 62
0
  0
LINE
  8
0
  6
CONTINUOUS
 10
549.725000
 20
292.125000
 11
551.175000
 21
293.600000
 39
2
 62
0
  0
LINE
  8
0
  6
CONTINUOUS
 10
551.175000
 20
293.600000
 11
552.650000
 21
295.075000
 39
2
 62
0
  0
LINE
  8
0
  6
CONTINUOUS
 10
552.650000
 20
295.075000
 11
554.125000
 21
296.550000
 39
2
 62
0
  0
LINE
  8
0
  6
CONTINUOUS
 10
554.125000
 20
296.550000
 11
555.575000
 21
298.025000
 39
2
 62
0
  0
LINE
  8
0
  6
CONTINUOUS
 10
555.575000
 20
298.025000
 11
557.050000
 21
299.475000
 39
2
 62
0
  0
LINE
  8
0
  6
CONTINUOUS
 10
557.050000
 20
299.475000
 11
558.525000
 21
300.950000
 39
2
 62
0
  0
LINE
  8
0
  6
CONTINUOUS
 10
558.525000
 20
300.950000
 11
560.000000
 21
302.425000
 39
2
 62
0
  0
LINE
  8
0
  6
CONTINUOUS
 10
560.000000
 20
302.425000
 11
561.475000
 21
303.875000
 39
2
 62
0
  0
LINE
  8
0
  6
CONTINUOUS
 10
561.475000
 20
303.875000
 11
562.925000
 21
305.350000
 39
2
 62
0
  0
LINE
  8
0
  6
CONTINUOUS
 10
562.925000
 20
305.350000
 11
564.400000
 21
306.825000
 39
2
 62
0
  0
LINE
  8
0
  6
CONTINUOUS
 10
5.724000
 20
271.765000
 11
4.648000
 21
272.840000
 39
2
 62
0
  0
LINE
  8
0
  6
CONTINUOUS
 10
4.648000
 20
272.840000
 11
3.573000
 21
273.916000
 39
2
 62
0
  0
LINE
  8
0
  6
CONTINUOUS
 10
3.573000
 20
273.916000
 11
2.491000
 21
274.991000
 39
2
 62
0
  0
LINE
  8
0
  6
CONTINUOUS
 10
2.491000
 20
274.991000
 11
1.416000
 21
276.066000
 39
2
 62
0
  0
LINE
  8
0
  6
CONTINUOUS
 10
1.416000
 20
276.066000
 11
0.352000
 21
277.130000
 39
2
 62
0
  0
LINE
  8
0
  6
CONTINUOUS
 10
0.352000
 20
277.130000
 11
-0.723400
 21
278.212000
 39
2
 62
0
  0
LINE
  8
0
  6
CONTINUOUS
 10
-0.723400
 20
278.212000
 11
-1.798800
 21
279.287000
 39
2
 62
0
  0
LINE
  8
0
  6
CONTINUOUS
 10
-1.798800
 20
279.287000
 11
-2.874300
 21
280.363000
 39
2
 62
0
  0
LINE
  8
0
  6
CONTINUOUS
 10
-2.874300
 20
280.363000
 11
-3.949700
 21
281.438000
 39
2
 62
0
  0
LINE
  8
0
  6
CONTINUOUS
 10
-3.949700
 20
281.438000
 11
-5.025100
 21
282.513000
 39
2
 62
0
  0
LINE
  8
0
  6
CONTINUOUS
 10
-5.025100
 20
282.513000
 11
-6.100600
 21
283.589000
 39
2
 62
0
  0
LINE
  8
0
  6
CONTINUOUS
 10
-6.100600
 20
283.589000
 11
-7.176000
 21
284.664000
 39
2
 62
0
  0
LINE
  8
0
  6
CONTINUOUS
 10
-7.176000
 20
284.664000
 11
-8.251500
 21
285.740000
 39
2
 62
0
  0
LINE
  8
0
  6
CONTINUOUS
 10
-8.251500
 20
285.740000
 11
-9.326900
 21
286.815000
 39
2
 62
0
  0
LINE
  8
0
  6
CONTINUOUS
 10
-9.326900
 20
286.815000
 11
-10.402300
 21
287.891000
 39
2
 62
0
  0
LINE
  8
0
  6
CONTINUOUS
 10
-10.402300
 20
287.891000
 11
-11.477800
 21
288.966000
 39
2
 62
0
  0
LINE
  8
0
  6
CONTINUOUS
 10
-11.477800
 20
288.966000
 11
-12.553200
 21
290.042000
 39
2
 62
0
  0
LINE
  8
0
  6
CONTINUOUS
 10
-12.553200
 20
290.042000
 11
-13.628700
 21
291.117000
 39
2
 62
0
  0
LINE
  8
0
  6
CONTINUOUS
 10
-13.628700
 20
291.117000
 11
-14.704100
 21
292.192000
 39
2
 62
0
  0
LINE
  8
0
  6
CONTINUOUS
 10
-14.704100
 20
292.192000
 11
-15.779500
 21
293.268000
 39
2
 62
0
  0
LINE
  8
0
  6
CONTINUOUS
 10
-15.779500
 20
293.268000
 11
-16.855000
 21
294.343000
 39
2
 62
0
  0
LINE
  8
0
  6
CONTINUOUS
 10
-16.855000
 20
294.343000
 11
-17.930400
 21
295.419000
 39
2
 62
0
  0
LINE
  8
0
  6
CONTINUOUS
 10
-17.930400
 20
295.419000
 11
-19.005900
 21
296.494000
 39
2
 62
0
  0
LINE
  8
0
  6
CONTINUOUS
 10
-19.005900
 20
296.494000
 11
-20.081300
 21
297.570000
 39
2
 62
0
  0
LINE
  8
0
  6
CONTINUOUS
 10
-20.081300
 20
297.570000
 11
-21.162800
 21
298.645000
 39
2
 62
0
  0
LINE
  8
0
  6
CONTINUOUS
 10
-21.162800
 20
298.645000
 11
-22.226600
 21
299.709000
 39
2
 62
0
  0
LINE
  8
0
  6
CONTINUOUS
 10
-22.226600
 20
299.709000
 11
-23.302000
 21
300.784000
 39
2
 62
0
  0
LINE
  8
0
  6
CONTINUOUS
 10
-23.302000
 20
300.784000
 11
-24.377400
 21
301.866000
 39
2
 62
0
  0
LINE
  8
0
  6
CONTINUOUS
 10
-24.377400
 20
301.866000
 11
-25.452900
 21
302.941000
 39
2
 62
0
  0
LINE
  8
0
  6
CONTINUOUS
 10
-25.452900
 20
302.941000
 11
-26.528300
 21
304.017000
 39
2
 62
0
  0
LINE
  8
0
  6
CONTINUOUS
 10
596.656000
 20
274.570000
 11
595.580000
 21
275.634000
 39
2
 62
0
  0
LINE
  8
0
  6
CONTINUOUS
 10
595.580000
 20
275.634000
 11
594.505000
 21
276.709000
 39
2
 62
0
  0
LINE
  8
0
  6
CONTINUOUS
 10
594.505000
 20
276.709000
 11
593.429000
 21
277.784000
 39
2
 62
0
  0
LINE
  8
0
  6
CONTINUOUS
 10
593.429000
 20
277.784000
 11
592.354000
 21
278.860000
 39
2
 62
0
  0
LINE
  8
0
  6
CONTINUOUS
 10
592.354000
 20
278.860000
 11
591.279000
 21
279.935000
 39
2
 62
0
  0
LINE
  8
0
  6
CONTINUOUS
 10
591.279000
 20
279.935000
 11
590.203000
 21
281.011000
 39
2
 62
0
  0
LINE
  8
0
  6
CONTINUOUS
 10
590.203000
 20
281.011000
 11
589.139000
 21
282.086000
 39
2
 62
0
  0
LINE
  8
0
  6
CONTINUOUS
 10
589.139000
 20
282.086000
 11
588.058000
 21
283.162000
 39
2
 62
0
  0
LINE
  8
0
  6
CONTINUOUS
 10
588.058000
 20
283.162000
 11
586.982000
 21
284.237000
 39
2
 62
0
  0
LINE
  8
0
  6
CONTINUOUS
 10
586.982000
 20
284.237000
 11
585.907000
 21
285.312000
 39
2
 62
0
  0
LINE
  8
0
  6
CONTINUOUS
 10
585.907000
 20
285.312000
 11
584.832000
 21
286.388000
 39
2
 62
0
  0
LINE
  8
0
  6
CONTINUOUS
 10
584.832000
 20
286.388000
 11
583.756000
 21
287.463000
 39
2
 62
0
  0
LINE
  8
0
  6
CONTINUOUS
 10
583.756000
 20
287.463000
 11
582.681000
 21
288.539000
 39
2
 62
0
  0
LINE
  8
0
  6
CONTINUOUS
 10
582.681000
 20
288.539000
 11
581.605000
 21
289.614000
 39
2
 62
0
  0
LINE
  8
0
  6
CONTINUOUS
 10
581.605000
 20
289.614000
 11
580.530000
 21
290.690000
 39
2
 62
0
  0
LINE
  8
0
  6
CONTINUOUS
 10
580.530000
 20
290.690000
 11
579.454000
 21
291.765000
 39
2
 62
0
  0
LINE
  8
0
  6
CONTINUOUS
 10
579.454000
 20
291.765000
 11
578.379000
 21
292.841000
 39
2
 62
0
  0
LINE
  8
0
  6
CONTINUOUS
 10
578.379000
 20
292.841000
 11
577.303000
 21
293.916000
 39
2
 62
0
  0
LINE
  8
0
  6
CONTINUOUS
 10
577.303000
 20
293.916000
 11
576.228000
 21
294.991000
 39
2
 62
0
  0
LINE
  8
0
  6
CONTINUOUS
 10
576.228000
 20
294.991000
 11
575.153000
 21
296.073000
 39
2
 62
0
  0
LINE
  8
0
  6
CONTINUOUS
 10
575.153000
 20
296.073000
 11
574.077000
 21
297.148000
 39
2
 62
0
  0
LINE
  8
0
  6
CONTINUOUS
 10
574.077000
 20
297.148000
 11
573.002000
 21
298.212000
 39
2
 62
0
  0
LINE
  8
0
  6
CONTINUOUS
 10
573.002000
 20
298.212000
 11
571.926000
 21
299.288000
 39
2
 62
0
  0
LINE
  8
0
  6
CONTINUOUS
 10
571.926000
 20
299.288000
 11
570.851000
 21
300.363000
 39
2
 62
0
  0
LINE
  8
0
  6
CONTINUOUS
 10
570.851000
 20
300.363000
 11
569.775000
 21
301.438000
 39
2
 62
0
  0
LINE
  8
0
  6
CONTINUOUS
 10
569.775000
 20
301.438000
 11
568.700000
 21
302.514000
 39
2
 62
0
  0
LINE
  8
0
  6
CONTINUOUS
 10
568.700000
 20
302.514000
 11
567.625000
 21
303.589000
 39
2
 62
0
  0
LINE
  8
0
  6
CONTINUOUS
 10
567.625000
 20
303.589000
 11
566.561000
 21
304.665000
 39
2
 62
0
  0
LINE
  8
0
  6
CONTINUOUS
 10
566.561000
 20
304.665000
 11
565.479000
 21
305.740000
 39
2
 62
0
  0
LINE
  8
0
  6
CONTINUOUS
 10
565.479000
 20
305.740000
 11
564.404000
 21
306.816000
 39
2
 62
0
  0
LINE
  8
dims
  6
CONTINUOUS
 10
43.469822
 20
364.928153
 11
66.074423
 21
325.775836
 39
0
 62
0
  0
LINE
  8
dims
  6
CONTINUOUS
 10
89.098603
 20
383.828213
 11
100.786947
 21
340.206718
 39
0
 62
0
  0
LINE
  8
dims
  6
CONTINUOUS
 10
138.064316
 20
390.274672
 11
138.064316
 21
345.073855
 39
0
 62
0
  0
LINE
  8
dims
  6
CONTINUOUS
 10
360.095863
 20
252.765142
 11
337.553790
 21
213.686167
 39
0
 62
0
  0
LINE
  8
dims
  6
CONTINUOUS
 10
432.104144
 20
233.081016
 11
432.121461
 21
188.386103
 39
0
 62
0
  0
LINE
  8
dims
  6
CONTINUOUS
 10
504.172347
 20
252.690807
 11
526.669499
 21
213.759440
 39
0
 62
0
  0
LINE
  8
dims
  6
CONTINUOUS
 10
138.064316
 20
201.085684
 11
239.500000
 21
302.600000
 39
0
 62
0
  0
LINE
  8
dims
  6
CONTINUOUS
 10
239.500000
 20
302.600000
 11
271.762575
 21
334.887585
 39
0
 62
0
  0
DIMENSION
  8
dims
  6
CONTINUOUS
  1
;;
 13
335.859255
 23
281.238312
 14
337.639176
 24
283.019614
 10
361.678212
 20
255.508305
 15
365.309880
 25
261.804170
 16
337.639176
 26
283.019614
 70
2
 39
0
 62
0
  0
ARC
  8
dims
  6
DASHDOT
 10
137.925600
 20
201.634572
 40
166.039749
 50
44.854460
 51
135.100083
 39
0
 62
0
  0
ARC
  8
dims
  6
DASHDOT
 10
432.123331
 20
376.225814
 40
165.492255
 50
224.691538
 51
315.293983
 39
0
 62
0
  0
LINE
  8
dims
  6
DASHDOT
 10
255.631287
 20
318.743792
 11
314.474333
 21
259.836813
 39
0
 62
0
  0
LINE
  8
dims
  6
DASHDOT
 10
549.742914
 20
259.807086
 11
580.563299
 21
290.627471
 39
0
 62
0
  0
LINE
  8
dims
  6
DASHDOT
 10
20.428350
 20
318.721650
 11
-10.401750
 21
287.891550
 39
0
 62
0
  0
LINE
  8
dims
  6
CONTINUOUS
 10
268.921523
 20
273.146510
 11
301.184097
 21
305.434095
 39
0
 62
0
  0
POINT
  8
dims
  6
CONTINUOUS
 10
20.428350
 20
318.721650
 39
0
 62
0
  0
DIMENSION
  8
default
  6
CONTINUOUS
  1
;;
 13
361.257807
 23
254.779489
 14
365.321613
 24
261.824512
 10
432.102746
 20
236.689104
 15
432.099929
 25
243.959044
 16
365.321613
 26
261.824512
 70
2
 39
0
 62
0
  0
DIMENSION
  8
default
  6
CONTINUOUS
  1
;;
 13
432.102715
 23
236.769449
 14
432.099940
 24
243.932684
 10
502.955542
 20
254.796491
 15
498.877570
 25
261.853430
 16
432.099940
 26
243.932684
 70
2
 39
0
 62
0
  0
TEXT
  8
default
  6
CONTINUOUS
 10
428.989419
 20
174.418819
 40
10.000000
 50
0.000000
 72
0
  7
Normal_fix#2.000000#6.000000
  1
A
 39
0
 62
0
  0
TEXT
  8
default
  6
CONTINUOUS
 10
259.857820
 20
262.158169
 40
10.000000
 50
0.000000
 72
0
  7
Normal_fix#2.000000#6.000000
  1
C
 39
0
 62
0
  0
TEXT
  8
default
  6
CONTINUOUS
 10
329.675941
 20
201.300662
 40
10.000000
 50
0.000000
 72
0
  7
Normal_fix#2.000000#6.000000
  1
D
 39
0
 62
0
  0
TEXT
  8
default
  6
CONTINUOUS
 10
527.929537
 20
202.420739
 40
10.000000
 50
0.000000
 72
0
  7
Normal_fix#2.000000#6.000000
  1
B
 39
0
 62
0
  0
LINE
  8
dims
  6
CONTINUOUS
 10
332.288427
 20
277.664134
 11
349.860892
 21
295.244064
 39
0
 62
0
  0
LINE
  8
dims
  6
CONTINUOUS
 10
273.413427
 20
336.514134
 11
290.985892
 21
354.094064
 39
0
 62
0
  0
LINE
  8
dims
  6
CONTINUOUS
 10
348.197465
 20
293.579930
 11
289.322465
 21
352.429930
 39
0
 62
0
  0
LINE
  8
dims
  6
CONTINUOUS
 10
289.322465
 20
352.429930
 11
292.379400
 21
350.665873
 39
0
 62
0
  0
LINE
  8
dims
  6
CONTINUOUS
 10
289.322465
 20
352.429930
 11
291.087820
 21
349.373745
 39
0
 62
0
  0
LINE
  8
dims
  6
CONTINUOUS
 10
348.197465
 20
293.579930
 11
345.140530
 21
295.343987
 39
0
 62
0
  0
LINE
  8
dims
  6
CONTINUOUS
 10
348.197465
 20
293.579930
 11
346.432110
 21
296.636115
 39
0
 62
0
  0
TEXT
  8
default
  6
CONTINUOUS
 10
321.136290
 20
325.382264
 40
5.882350
 50
315.012000
 72
1
  7
Normal#1.176470#3.529410
  1
4.267 m (14 ft)
 39
0
 62
0
  0
LINE
  8
dims
  6
CONTINUOUS
 10
302.863781
 20
307.088781
 11
309.810818
 21
314.035818
 39
0
 62
0
  0
LINE
  8
dims
  6
CONTINUOUS
 10
332.288781
 20
277.663781
 11
339.235818
 21
284.610818
 39
0
 62
0
  0
LINE
  8
dims
  6
CONTINUOUS
 10
308.147037
 20
312.372037
 11
337.572037
 21
282.947037
 39
0
 62
0
  0
LINE
  8
dims
  6
CONTINUOUS
 10
337.572037
 20
282.947037
 11
334.515477
 21
284.711743
 39
0
 62
0
  0
LINE
  8
dims
  6
CONTINUOUS
 10
337.572037
 20
282.947037
 11
335.807331
 21
286.003597
 39
0
 62
0
  0
LINE
  8
dims
  6
CONTINUOUS
 10
308.147037
 20
312.372037
 11
311.203597
 21
310.607331
 39
0
 62
0
  0
LINE
  8
dims
  6
CONTINUOUS
 10
308.147037
 20
312.372037
 11
309.911743
 21
309.315477
 39
0
 62
0
  0
TEXT
  8
default
  6
CONTINUOUS
 10
325.236367
 20
300.036367
 40
5.882350
 50
315.000000
 72
1
  7
Normal#1.176470#3.529410
  1
2.133 m (7 ft)
 39
0
 62
0
  0
LINE
  8
dims
  6
CONTINUOUS
 10
137.925600
 20
201.634572
 11
237.270273
 21
334.675295
 39
0
 62
0
  0
LINE
  8
dims
  6
CONTINUOUS
 10
237.270273
 20
334.675295
 11
235.962448
 21
331.397134
 39
0
 62
0
  0
LINE
  8
dims
  6
CONTINUOUS
 10
237.270273
 20
334.675295
 11
234.498583
 21
332.490237
 39
0
 62
0
  0
TEXT
  8
default
  6
CONTINUOUS
 10
178.705137
 20
274.299085
 40
5.882350
 50
53.250400
 72
1
  7
Normal#1.176470#3.529410
  1
8.534 m 
 39
0
 62
0
  0
TEXT
  8
default
  6
CONTINUOUS
 10
185.303729
 20
269.371755
 40
5.882350
 50
53.250400
 72
1
  7
Normal#1.176470#3.529410
  1
(28 ft)
 39
0
 62
0
  0
LINE
  8
dims
  6
CONTINUOUS
 10
598.314920
 20
272.912367
 11
615.389073
 21
255.852055
 39
0
 62
0
  0
LINE
  8
dims
  6
CONTINUOUS
 10
567.489455
 20
242.061894
 11
584.563608
 21
225.001582
 39
0
 62
0
  0
LINE
  8
dims
  6
CONTINUOUS
 10
613.724618
 20
257.515161
 11
582.899153
 21
226.664688
 39
0
 62
0
  0
LINE
  8
dims
  6
CONTINUOUS
 10
582.899153
 20
226.664688
 11
584.662619
 21
229.721963
 39
0
 62
0
  0
LINE
  8
dims
  6
CONTINUOUS
 10
582.899153
 20
226.664688
 11
585.954997
 21
228.430633
 39
0
 62
0
  0
LINE
  8
dims
  6
CONTINUOUS
 10
613.724618
 20
257.515161
 11
611.961151
 21
254.457885
 39
0
 62
0
  0
LINE
  8
dims
  6
CONTINUOUS
 10
613.724618
 20
257.515161
 11
610.668773
 21
255.749216
 39
0
 62
0
  0
LINE
  8
dims
  6
CONTINUOUS
 10
-28.189553
 20
305.688109
 11
-39.738960
 21
317.228191
 39
0
 62
0
  0
LINE
  8
dims
  6
CONTINUOUS
 10
2.623047
 20
336.525609
 11
-8.926360
 21
348.065691
 39
0
 62
0
  0
LINE
  8
dims
  6
CONTINUOUS
 10
-38.074508
 20
315.565082
 11
-7.261908
 21
346.402582
 39
0
 62
0
  0
LINE
  8
dims
  6
CONTINUOUS
 10
-7.261908
 20
346.402582
 11
-9.025379
 21
343.345309
 39
0
 62
0
  0
LINE
  8
dims
  6
CONTINUOUS
 10
-7.261908
 20
346.402582
 11
-10.317755
 21
344.636642
 39
0
 62
0
  0
LINE
  8
dims
  6
CONTINUOUS
 10
-38.074508
 20
315.565082
 11
-36.311037
 21
318.622355
 39
0
 62
0
  0
LINE
  8
dims
  6
CONTINUOUS
 10
-38.074508
 20
315.565082
 11
-35.018661
 21
317.331022
 39
0
 62
0
  0
LINE
  8
dims
  6
CONTINUOUS
 10
-28.192073
 20
302.353212
 11
-40.878956
 21
289.666211
 39
0
 62
0
  0
LINE
  8
dims
  6
CONTINUOUS
 10
4.060227
 20
270.101212
 11
-8.626656
 21
257.414211
 39
0
 62
0
  0
LINE
  8
dims
  6
CONTINUOUS
 10
-39.215183
 20
291.329999
 11
-6.962883
 21
259.077999
 39
0
 62
0
  0
LINE
  8
dims
  6
CONTINUOUS
 10
-6.962883
 20
259.077999
 11
-10.019451
 21
260.842691
 39
0
 62
0
  0
LINE
  8
dims
  6
CONTINUOUS
 10
-6.962883
 20
259.077999
 11
-8.727603
 21
262.134551
 39
0
 62
0
  0
LINE
  8
dims
  6
CONTINUOUS
 10
-39.215183
 20
291.329999
 11
-36.158615
 21
289.565307
 39
0
 62
0
  0
LINE
  8
dims
  6
CONTINUOUS
 10
-39.215183
 20
291.329999
 11
-37.450463
 21
288.273447
 39
0
 62
0
  0
TEXT
  8
default
  6
CONTINUOUS
 10
-27.600542
 20
269.314846
 40
5.882350
 50
315.000000
 72
1
  7
Normal#1.176470#3.529410
  1
2.338  m 
 39
0
 62
0
  0
TEXT
  8
default
  6
CONTINUOUS
 10
-33.423772
 20
263.491617
 40
5.882350
 50
315.000000
 72
1
  7
Normal#1.176470#3.529410
  1
(7.67 ft)
 39
0
 62
0
  0
TEXT
  8
default
  6
CONTINUOUS
 10
-25.045997
 20
333.359702
 40
5.882350
 50
45.023100
 72
1
  7
Normal#1.176470#3.529410
  1
2.133 m (7 ft)
 39
0
 62
0
  0
TEXT
  8
default
  6
CONTINUOUS
 10
607.669413
 20
233.420782
 40
5.882350
 50
45.023200
 72
1
  7
Normal#1.176470#3.529410
  1
2.133 m (7 ft)
 39
0
 62
0
  0
LINE
  8
default
  6
CONTINUOUS
 10
19.178350
 20
319.971650
 11
21.678350
 21
317.471650
 39
4
 62
0
  0
LINE
  8
default
  6
CONTINUOUS
 10
21.678350
 20
319.971650
 11
19.178350
 21
317.471650
 39
4
 62
0
  0
LINE
  8
default
  6
CONTINUOUS
 10
43.010223
 20
364.809139
 11
45.510223
 21
362.309139
 39
4
 62
0
  0
LINE
  8
default
  6
CONTINUOUS
 10
45.510223
 20
364.809139
 11
43.010223
 21
362.309139
 39
4
 62
0
  0
LINE
  8
default
  6
CONTINUOUS
 10
99.178574
 20
342.794183
 11
101.678574
 21
340.294183
 39
4
 62
0
  0
LINE
  8
default
  6
CONTINUOUS
 10
101.678574
 20
342.794183
 11
99.178574
 21
340.294183
 39
4
 62
0
  0
ENDSEC
  0
EOF
